<svg width="304" height="356" viewBox="0 0 304 356" fill="none" xmlns="http://www.w3.org/2000/svg">
<g filter="url(#filter0_d_22_62)">
<path d="M239.191 116.056C239.191 179.583 186.782 231.111 122.096 231.111C57.409 231.111 5 179.583 5 116.056C5 52.5285 57.409 1 122.096 1C186.782 1 239.191 52.5285 239.191 116.056Z" stroke="#F1D299" stroke-width="2" shape-rendering="crispEdges"/>
</g>
<path d="M182.933 213.163C182.933 213.163 209.585 250.118 222.603 265.975" stroke="#F1D299" stroke-width="2"/>
<g style="mix-blend-mode:darken">
<path d="M211.3 274.698L234.787 256.317L295.037 333.926L269.507 351.286L211.3 274.698Z" fill="url(#paint0_linear_22_62)"/>
</g>
<rect x="1.40507" y="0.199387" width="32.7342" height="100.067" transform="matrix(0.801534 -0.59795 0.603534 0.797337 208.395 274.903)" stroke="#F1D299" stroke-width="2"/>
<defs>
<filter id="filter0_d_22_62" x="0" y="0" width="244.191" height="240.111" filterUnits="userSpaceOnUse" color-interpolation-filters="sRGB">
<feFlood flood-opacity="0" result="BackgroundImageFix"/>
<feColorMatrix in="SourceAlpha" type="matrix" values="0 0 0 0 0 0 0 0 0 0 0 0 0 0 0 0 0 0 127 0" result="hardAlpha"/>
<feOffset dy="4"/>
<feGaussianBlur stdDeviation="2"/>
<feComposite in2="hardAlpha" operator="out"/>
<feColorMatrix type="matrix" values="0 0 0 0 0 0 0 0 0 0 0 0 0 0 0 0 0 0 1 0"/>
<feBlend mode="normal" in2="BackgroundImageFix" result="effect1_dropShadow_22_62"/>
<feBlend mode="normal" in="SourceGraphic" in2="effect1_dropShadow_22_62" result="shape"/>
</filter>
<linearGradient id="paint0_linear_22_62" x1="266.298" y1="357.636" x2="291.863" y2="272.968" gradientUnits="userSpaceOnUse">
<stop stop-color="#003F46"/>
<stop offset="0.827818" stop-color="#003F46" stop-opacity="0"/>
</linearGradient>
</defs>
</svg>
