<svg width="258" height="15" viewBox="0 0 258 15" fill="none" xmlns="http://www.w3.org/2000/svg">
    <path fill-rule="evenodd" clip-rule="evenodd" d="M13.4779 7.32107L7.82108 1.66421L2.16422 7.32107L7.82108 12.9779L13.4779 7.32107ZM7.82108 0.25L0.750008 7.32107L7.82108 14.3921L14.8921 7.32107L7.82108 0.25Z" fill="#F1D299"/>
    <path fill-rule="evenodd" clip-rule="evenodd" d="M44.3783 9.55676L50.0386 3.89645L50.7457 4.60356L44.406 10.9433L37.8921 4.93046L31.3783 10.9433L25.0386 4.60356L25.7457 3.89645L31.406 9.55676L37.8921 3.56955L44.3783 9.55676Z" fill="#F1D299"/>
    <path fill-rule="evenodd" clip-rule="evenodd" d="M57.3922 7.25L77.3922 7.25V8.25L57.3922 8.25V7.25Z" fill="#F1D299"/>
    <path fill-rule="evenodd" clip-rule="evenodd" d="M103.978 7.32107L98.3211 1.66421L92.6642 7.32107L98.3211 12.9779L103.978 7.32107ZM98.3211 0.25L91.25 7.32107L98.3211 14.3921L105.392 7.32107L98.3211 0.25Z" fill="#F1D299"/>
    <path fill-rule="evenodd" clip-rule="evenodd" d="M134.878 10.0568L140.539 4.39645L141.246 5.10356L134.906 11.4433L128.392 5.43046L121.878 11.4433L115.539 5.10356L116.246 4.39645L121.906 10.0568L128.392 4.06955L134.878 10.0568Z" fill="#F1D299"/>
    <path fill-rule="evenodd" clip-rule="evenodd" d="M147.392 7.25L167.392 7.25V8.25L147.392 8.25V7.25Z" fill="#F1D299"/>
    <path fill-rule="evenodd" clip-rule="evenodd" d="M193.978 7.32107L188.321 1.66421L182.664 7.32107L188.321 12.9779L193.978 7.32107ZM188.321 0.25L181.25 7.32107L188.321 14.3921L195.392 7.32107L188.321 0.25Z" fill="#F1D299"/>
    <path fill-rule="evenodd" clip-rule="evenodd" d="M224.878 10.0568L230.539 4.39645L231.246 5.10356L224.906 11.4433L218.392 5.43046L211.878 11.4433L205.539 5.10356L206.246 4.39645L211.906 10.0568L218.392 4.06955L224.878 10.0568Z" fill="#F1D299"/>
    <path fill-rule="evenodd" clip-rule="evenodd" d="M237.392 7.25L257.392 7.25V8.25L237.392 8.25V7.25Z" fill="#F1D299"/>
</svg>