<svg width="105" height="105" viewBox="0 0 105 105" fill="none" xmlns="http://www.w3.org/2000/svg">
<g style="mix-blend-mode:darken">
<path d="M23.375 75.8125L23.375 29.0625L81.5 29.0625L81.5 75.8125L23.375 75.8125Z" fill="url(#paint0_linear)"/>
</g>
<path d="M69 29.5625H81.5V64.0625M69 29.5625V64.0625M69 29.5625L59.5 19.0625M69 29.5625C69 29.5625 59.5 24.0625 59.5 29.5625C59.5 35.0625 59.5 19.0625 59.5 19.0625M69 64.0625H63M69 64.0625H81.5M35.5 64.0625V29.5625M35.5 64.0625H42M35.5 64.0625H23.5M35.5 29.5625H23.5V64.0625M35.5 29.5625V19.0625H59.5M52.5 76.0625H23.5V64.0625M52.5 76.0625H81.5V64.0625M52.5 76.0625V86.0625M52.5 86.0625H40.5M52.5 86.0625H65M42 64.0625V46.5625M42 64.0625H45.5M42 46.5625L48 43.0625L55 46.5625M42 46.5625H55M55 46.5625V51.0625M55 63.0625V51.0625M55 51.0625H63V64.0625M63 64.0625H51.5M45.5 64.0625V59.0625H51.5V64.0625M45.5 64.0625H51.5M57 55.0625H60.5M57 58.0625H60.5M57 61.0625H60.5M44.5 52.0625H52.5M44.5 55.0625H52.5M40.5 28.5625H52.5M40.5 34.0625H63M40.5 38.0625H63" stroke="white"/>
<defs>
<linearGradient id="paint0_linear" x1="69.8751" y1="69.3125" x2="65.7747" y2="34.1427" gradientUnits="userSpaceOnUse">
<stop stop-color="#003F46"/>
<stop offset="0.827818" stop-color="#003F46" stop-opacity="0"/>
</linearGradient>
</defs>
</svg>
