<svg width="52" height="52" viewBox="0 0 52 52" fill="none" xmlns="http://www.w3.org/2000/svg">
<mask id="mask0" style="mask-type:alpha" maskUnits="userSpaceOnUse" x="0" y="0" width="52" height="52">
<rect width="52" height="52" fill="#C4C4C4"/>
</mask>
<g mask="url(#mask0)">
<g style="mix-blend-mode:darken">
<path d="M0.982419 49.9824L0.526326 8.4737L50.0175 9.01752L50.4737 50.5263L0.982419 49.9824Z" fill="url(#paint0_linear)"/>
</g>
<path d="M10.5 26.5H1V50H10.5M10.5 26.5V35.5L14 32L17 34M10.5 26.5V50M17 34V50M17 34H20M34.5 37V34H31.5M34.5 37H41.5M34.5 37V50M41.5 37V28L45.5 23.5H50.5V50H41.5M41.5 37V50M10.5 50H17M17 50H29M34.5 50H41.5M34.5 50H29M20 34V15.5H22M20 34H31.5M31.5 34V15.5H30M22 15.5V5.5H26M22 15.5H30M30 15.5V5.5H26M26 5.5V0M20 37H31.5M20 40H31.5M23 49.5V43.5V42H29V50M23 18H29M23 21H29M23 24H29M24 8H28M24 10.5H28" stroke="white"/>
<path d="M14.6428 12.0356H3.64282H2.14282C2.14282 12.0356 -0.428527 9.53552 2.14282 7.53558C3.64282 6.36891 5.64282 7.53558 5.64282 7.53558C5.64282 7.53558 4.26211 6.41625 5.64282 5.03553C7.02353 3.65482 9.26211 3.65482 10.6428 5.03553C12.0235 6.41625 12.1428 7.53558 12.1428 7.53558C12.1428 7.53558 13.6428 5.03553 16.1428 7.53558C18.6428 10.0356 14.6428 12.0356 14.6428 12.0356Z" stroke="white"/>
<path d="M50.1165 16.5356H39.1165H37.6165C37.6165 16.5356 36.2293 13.1145 37.6165 12.0356C38.6954 11.1964 41.1165 12.0356 41.1165 12.0356C41.1165 12.0356 39.7358 10.8807 41.1165 9.5C42.4972 8.11929 44.7358 8.11929 46.1165 9.5C47.4972 10.8807 46.1165 12.0356 46.1165 12.0356C46.1165 12.0356 48.949 10.9978 50.1165 12.0356C51.43 13.2031 50.1165 16.5356 50.1165 16.5356Z" stroke="white"/>
</g>
<defs>
<linearGradient id="paint0_linear" x1="50.3977" y1="43.6082" x2="46.4258" y2="6.04308" gradientUnits="userSpaceOnUse">
<stop stop-color="#003F46"/>
<stop offset="0.827818" stop-color="#003F46" stop-opacity="0"/>
</linearGradient>
</defs>
</svg>
