<svg xmlns="http://www.w3.org/2000/svg" fill="#fff" viewBox="0 0 480 480" style="fill-rule:evenodd;clip-rule:evenodd;stroke-linejoin:round;stroke-miterlimit:2;">
    <rect x="192.014" y="384.003" width="95.996" height="15.999" style="fill-rule:nonzero;"/>
    <rect x="192.014" y="352.004" width="95.996" height="15.999" style="fill-rule:nonzero;"/>
    <rect x="208.013" y="288.007" width="63.997" height="15.999" style="fill-rule:nonzero;"/>
    <rect x="208.013" y="256.009" width="63.997" height="15.999" style="fill-rule:nonzero;"/>
    <rect x="208.013" y="224.01" width="63.997" height="15.999" style="fill-rule:nonzero;"/>
    <rect x="208.013" y="192.011" width="63.997" height="15.999" style="fill-rule:nonzero;"/>
    <rect x="224.012" y="112.015" width="31.999" height="15.999" style="fill-rule:nonzero;"/>
    <rect x="224.012" y="80.016" width="31.999" height="15.999" style="fill-rule:nonzero;"/>
    <path d="M384.006,260.169L384.006,336.005L336.008,336.005L336.008,384.003L320.008,384.003L320.008,320.006L304.009,320.006L304.009,144.013L288.01,144.013L288.01,48.017L248.011,48.017L248.011,0.02L232.012,0.02L232.012,48.017L192.014,48.017L192.014,144.013L176.014,144.013L176.014,320.006L160.015,320.006L160.015,327.357L128.017,301.761L96.018,327.357L96.018,256.009L0.022,256.009L0.022,479.999L480.001,479.999L480.001,224.01L429.195,224.01L384.006,260.169ZM352.007,352.004L384.006,352.004L384.006,384.003L352.007,384.003L352.007,352.004ZM208.013,64.017L272.01,64.017L272.01,144.013L208.013,144.013L208.013,64.017ZM192.014,160.013L288.01,160.013L288.01,320.006L192.014,320.006L192.014,160.013ZM80.019,464L16.021,464L16.021,272.008L80.019,272.008L80.019,464ZM160.015,464L96.018,464L96.018,347.845L128.017,322.248L160.015,347.845L160.015,464ZM208.013,464L208.013,432.001L272.01,432.001L272.01,464L208.013,464ZM304.009,464L288.01,464L288.01,416.002L192.014,416.002L192.014,464L176.014,464L176.014,336.005L304.009,336.005L304.009,464ZM384.006,464L320.008,464L320.008,400.002L384.006,400.002L384.006,464ZM464.002,240.009L464.002,464L400.005,464L400.005,267.848L434.808,240.009L464.002,240.009Z" style="fill-rule:nonzero;"/>
    <path d="M160.015,56.017C160,48.139 156.121,40.768 149.629,36.295C143.141,31.823 134.872,30.823 127.505,33.62C124.372,14.242 107.646,0 88.018,0C68.39,0 51.66,14.242 48.532,33.62C41.161,30.823 32.892,31.823 26.404,36.295C19.916,40.768 16.033,48.139 16.021,56.017L16.021,96.015L160.015,96.015L160.015,56.017ZM144.016,80.016L32.021,80.016L32.021,56.017C32.021,51.599 35.602,48.017 40.02,48.017C44.438,48.017 48.02,51.599 48.02,56.017L64.019,56.017L64.019,40.018C64.019,26.764 74.761,16.019 88.018,16.019C101.272,16.019 112.017,26.764 112.017,40.018L112.017,56.017L128.017,56.017C128.017,51.599 131.598,48.017 136.016,48.017C140.434,48.017 144.016,51.599 144.016,56.017L144.016,80.016Z" style="fill-rule:nonzero;"/>
    <path d="M464.002,96.015C463.987,88.137 460.108,80.766 453.616,76.294C447.128,71.821 438.859,70.821 431.492,73.618C428.359,54.24 411.633,39.998 392.005,39.998C372.377,39.998 355.647,54.24 352.519,73.618C345.148,70.821 336.879,71.821 330.391,76.294C323.903,80.766 320.02,88.137 320.008,96.015L320.008,136.014L464.002,136.014L464.002,96.015ZM448.003,120.014L336.008,120.014L336.008,96.015C336.008,91.598 339.589,88.016 344.007,88.016C348.425,88.016 352.007,91.598 352.007,96.015L368.006,96.015L368.006,80.016C368.006,66.763 378.748,56.017 392.005,56.017C405.259,56.017 416.004,66.763 416.004,80.016L416.004,96.015L432.004,96.015C432.004,91.598 435.585,88.016 440.003,88.016C444.421,88.016 448.003,91.598 448.003,96.015L448.003,120.014Z" style="fill-rule:nonzero;"/>
</svg>