<svg width="52" height="52" viewBox="0 0 52 52" fill="none" xmlns="http://www.w3.org/2000/svg">
<mask id="mask0" style="mask-type:alpha" maskUnits="userSpaceOnUse" x="0" y="0" width="52" height="52">
<rect width="52" height="52" fill="#C4C4C4"/>
</mask>
<g mask="url(#mask0)">
<g style="mix-blend-mode:darken">
<path d="M7.87498 50.75L7.87499 1.00001L43.875 1L43.875 50.75H7.87498Z" fill="url(#paint0_linear)"/>
</g>
<path d="M37 2H8V51.5H44V8.5M37 2L44 8.5M37 2C37 2 37 14 37 9.5C37 5 44 8.5 44 8.5M36 35H40.5V26H37.5L34.5 21.5H21.5V23.75M36 35V33L28 26H21.5V23.75M36 35L33.5 35.5M21.5 23.75H11.5V31H14V33.5H17L19 35.5M29 41L27 43L26 42.5M29 41L25 37M29 41L31 38.5M31 38.5L27.5 35M31 38.5L33.5 35.5M33.5 35.5L30 32.5M14 34.5L13.5 36L15.75 38.25M26 42.5L22.5 45L21 43.5M26 42.5L24 40.5M21 43.5L24 40.5M21 43.5L18.5 41M24 40.5L21.5 38M18.5 41L21.5 38M18.5 41L15.75 38.25M21.5 38L19 35.5M15.75 38.25L19 35.5" stroke="white"/>
<path d="M32 44.5H41M32 47H41M20 10.5V17H22.5M20 10.5H17.5L25 5L32 10.5H29.5M20 10.5H29.5M29.5 10.5V17H26.5M22.5 17V13H26.5V17M22.5 17H26.5" stroke="white"/>
</g>
<defs>
<linearGradient id="paint0_linear" x1="54.3751" y1="44.25" x2="50.2747" y2="9.08019" gradientUnits="userSpaceOnUse">
<stop stop-color="#003F46"/>
<stop offset="0.827818" stop-color="#003F46" stop-opacity="0"/>
</linearGradient>
</defs>
</svg>
