<svg width="70" height="75" viewBox="0 0 70 75" fill="none" xmlns="http://www.w3.org/2000/svg">
<g style="mix-blend-mode:darken">
<path d="M10.9063 74.625L10.9063 16.8125L35.5312 1.31247L58.5312 16.8125L58.5312 74.625L10.9063 74.625Z" fill="url(#paint0_linear)"/>
</g>
<path d="M10.5312 23.3125V74.3125H58.5312V23.3125M10.5312 23.3125L35.5312 8.3125L58.5312 23.3125M10.5312 23.3125V17.3125L35.5312 1.8125L58.5312 17.3125V23.3125M21.5312 37.8125V31.8125H28.0312M49.5312 31.8125H48.0312M46.5312 39.3125H48.0312M48.0312 39.3125H49.5312V35.3125H46.5312V31.8125H48.0312M48.0312 39.3125V41.3125M48.0312 31.8125V29.8125M16.5312 26.3125H54.0312V44.3125H16.5312V26.3125ZM16.5312 48.8125H24.5312V56.8125H16.5312V48.8125ZM16.5312 61.3125H24.5312V69.3125H16.5312V61.3125ZM29.0312 61.3125H37.0312V69.3125H29.0312V61.3125ZM29.0312 48.8125H37.0312V56.8125H29.0312V48.8125ZM41.0312 48.8125H54.0312V69.3125H41.0312V48.8125Z" stroke="white"/>
<defs>
<linearGradient id="paint0_linear" x1="57.4063" y1="68.125" x2="53.306" y2="32.9552" gradientUnits="userSpaceOnUse">
<stop stop-color="#003F46"/>
<stop offset="0.827818" stop-color="#003F46" stop-opacity="0"/>
</linearGradient>
</defs>
</svg>
