<svg width="49" height="66" viewBox="0 0 49 66" fill="none" xmlns="http://www.w3.org/2000/svg">
<path d="M38.9009 0.594788H1.36157V64.6706H47.9621V9.00878M38.9009 0.594788L47.9621 9.00878M38.9009 0.594788C38.9009 0.594788 38.9009 16.1283 38.9009 10.3032C38.9009 4.47817 47.9621 9.00878 47.9621 9.00878M37.6065 43.312H43.4315V31.6618H39.5481L35.6648 25.8368H18.8368V28.7493M37.6065 43.312V40.723L27.2508 31.6618H18.8368V28.7493M37.6065 43.312L34.3703 43.9592M18.8368 28.7493H5.89218V38.1341H9.12833V41.3703H13.0117L15.6006 43.9592M28.5452 51.0787L25.9563 53.6676L24.6619 53.0204M28.5452 51.0787L23.3674 45.9009M28.5452 51.0787L31.1342 47.8426M31.1342 47.8426L26.6035 43.312M31.1342 47.8426L34.3703 43.9592M34.3703 43.9592L29.8397 40.0758M9.12833 42.6647L8.4811 44.6064L11.3936 47.519M24.6619 53.0204L20.1312 56.2566L18.1896 54.3149M24.6619 53.0204L22.0729 50.4315M18.1896 54.3149L22.0729 50.4315M18.1896 54.3149L14.9534 51.0787M22.0729 50.4315L18.8368 47.1953M14.9534 51.0787L18.8368 47.1953M14.9534 51.0787L11.3936 47.519M18.8368 47.1953L15.6006 43.9592M11.3936 47.519L15.6006 43.9592" stroke="white"/>
<path d="M32.4286 55.6093H44.0787M32.4286 58.8455H44.0787M16.8951 11.5977V20.0117H20.1312M16.8951 11.5977H13.6589L23.3674 4.47815L32.4286 11.5977H29.1925M16.8951 11.5977H29.1925M29.1925 11.5977V20.0117H25.3091M20.1312 20.0117V14.8338H25.3091V20.0117M20.1312 20.0117H25.3091" stroke="white"/>
</svg>
