<svg width="70" height="70" viewBox="0 0 70 70" fill="none" xmlns="http://www.w3.org/2000/svg">
<mask id="mask0" style="mask-type:alpha" maskUnits="userSpaceOnUse" x="0" y="0" width="70" height="70">
<rect width="70" height="70" fill="#C4C4C4"/>
</mask>
<g mask="url(#mask0)">
<g style="mix-blend-mode:darken">
<path d="M12.1997 65.6997L12.1997 1.30031L58.8003 1.3003L58.8003 65.6997H12.1997Z" fill="url(#paint0_linear)"/>
</g>
<path d="M49.9009 2.59479H12.3616V66.6706H58.9621V11.0088M49.9009 2.59479L58.9621 11.0088M49.9009 2.59479C49.9009 2.59479 49.9009 18.1283 49.9009 12.3032C49.9009 6.47817 58.9621 11.0088 58.9621 11.0088M48.6065 45.312H54.4315V33.6618H50.5481L46.6648 27.8368H29.8368V30.7493M48.6065 45.312V42.723L38.2508 33.6618H29.8368V30.7493M48.6065 45.312L45.3703 45.9592M29.8368 30.7493H16.8922V40.1341H20.1283V43.3703H24.0117L26.6006 45.9592M39.5452 53.0787L36.9563 55.6676L35.6619 55.0204M39.5452 53.0787L34.3674 47.9009M39.5452 53.0787L42.1342 49.8426M42.1342 49.8426L37.6035 45.312M42.1342 49.8426L45.3703 45.9592M45.3703 45.9592L40.8397 42.0758M20.1283 44.6647L19.4811 46.6064L22.3936 49.519M35.6619 55.0204L31.1312 58.2566L29.1896 56.3149M35.6619 55.0204L33.0729 52.4315M29.1896 56.3149L33.0729 52.4315M29.1896 56.3149L25.9534 53.0787M33.0729 52.4315L29.8368 49.1953M25.9534 53.0787L29.8368 49.1953M25.9534 53.0787L22.3936 49.519M29.8368 49.1953L26.6006 45.9592M22.3936 49.519L26.6006 45.9592" stroke="white"/>
<path d="M43.4286 57.6093H55.0787M43.4286 60.8455H55.0787M27.8951 13.5977V22.0117H31.1312M27.8951 13.5977H24.6589L34.3674 6.47815L43.4286 13.5977H40.1925M27.8951 13.5977H40.1925M40.1925 13.5977V22.0117H36.3091M31.1312 22.0117V16.8338H36.3091V22.0117M31.1312 22.0117H36.3091" stroke="white"/>
</g>
<defs>
<linearGradient id="paint0_linear" x1="72.3922" y1="57.2857" x2="67.0844" y2="11.7598" gradientUnits="userSpaceOnUse">
<stop stop-color="#003F46"/>
<stop offset="0.827818" stop-color="#003F46" stop-opacity="0"/>
</linearGradient>
</defs>
</svg>
