<svg xmlns="http://www.w3.org/2000/svg" fill="#fff" viewBox="0 0 480 480" style="fill-rule:evenodd;clip-rule:evenodd;stroke-linejoin:round;stroke-miterlimit:2;">
    <path d="M439.992,200L426.891,200L381.121,161.855C379.68,160.656 377.867,160 375.992,160L247.992,160C243.574,160 239.992,163.582 239.992,168L239.992,176L151.992,176C147.574,176 143.992,179.582 143.992,184L143.992,256C143.992,260.418 147.574,264 151.992,264L164.68,264L180.68,280L170.336,290.344C167.215,293.469 167.215,298.531 170.336,301.656L266.336,397.656C269.461,400.777 274.523,400.777 277.648,397.656L295.992,379.313L298.336,381.656C301.461,384.777 306.523,384.777 309.648,381.656L395.305,296L439.992,296C444.41,296 447.992,292.418 447.992,288L447.992,208C447.992,203.582 444.41,200 439.992,200ZM187.305,296L199.992,283.313L212.68,296L199.992,308.688L187.305,296ZM223.992,307.313L236.68,320L223.992,332.688L211.305,320L223.992,307.313ZM247.992,331.313L260.68,344L247.992,356.688L235.305,344L247.992,331.313ZM271.992,380.688L259.305,368L271.992,355.313L284.68,368L271.992,380.688ZM359.992,308.688L325.648,274.344C322.508,271.313 317.52,271.355 314.434,274.441C311.348,277.527 311.305,282.516 314.336,285.656L348.68,320L335.992,332.688L301.648,298.344C298.508,295.313 293.52,295.355 290.434,298.441C287.348,301.527 287.305,306.516 290.336,309.656L324.68,344L303.992,364.688L205.648,266.344C202.523,263.223 197.461,263.223 194.336,266.344L191.992,268.688L173.648,250.344C172.148,248.844 170.113,248 167.992,248L159.992,248L159.992,192L239.992,192L239.992,200C239.992,204.418 243.574,208 247.992,208L300.68,208L380.68,288L359.992,308.688ZM431.992,280L395.305,280L309.648,194.344C308.148,192.844 306.113,192 303.992,192L255.992,192L255.992,176L373.098,176L418.863,214.145C420.305,215.344 422.117,216 423.992,216L431.992,216L431.992,280Z" style="fill-rule:nonzero;"/>
    <path d="M215.992,128C211.574,128 207.992,131.582 207.992,136C207.992,140.418 211.574,144 215.992,144L359.992,144C364.41,144 367.992,140.418 367.992,136C367.992,131.582 364.41,128 359.992,128L343.992,128L343.992,80L359.992,80C363.52,80 366.629,77.695 367.652,74.32C368.672,70.945 367.367,67.301 364.434,65.344L292.434,17.344C289.746,15.551 286.242,15.551 283.551,17.344L211.551,65.344C208.621,67.301 207.312,70.945 208.336,74.32C209.355,77.695 212.469,80 215.992,80L231.992,80L231.992,128L215.992,128ZM279.992,128L279.992,112L295.992,112L295.992,128L279.992,128ZM287.992,33.602L333.594,64L242.395,64L287.992,33.602ZM247.992,80L327.992,80L327.992,128L311.992,128L311.992,104C311.992,99.582 308.41,96 303.992,96L271.992,96C267.574,96 263.992,99.582 263.992,104L263.992,128L247.992,128L247.992,80Z" style="fill-rule:nonzero;"/>
    <path d="M439.992,384L359.992,384C355.574,384 351.992,387.582 351.992,392C351.992,396.418 355.574,400 359.992,400L439.992,400C444.41,400 447.992,396.418 447.992,392C447.992,387.582 444.41,384 439.992,384Z" style="fill-rule:nonzero;"/>
    <path d="M439.992,416L359.992,416C355.574,416 351.992,419.582 351.992,424C351.992,428.418 355.574,432 359.992,432L439.992,432C444.41,432 447.992,428.418 447.992,424C447.992,419.582 444.41,416 439.992,416Z" style="fill-rule:nonzero;"/>
    <path d="M479.48,69.434C479.395,69.176 479.328,68.938 479.215,68.688C478.828,67.816 478.285,67.023 477.617,66.344L413.617,2.344C412.941,1.672 412.152,1.129 411.281,0.742C411.023,0.625 410.777,0.559 410.48,0.465C409.824,0.242 409.141,0.109 408.449,0.063C408.336,0.09 408.176,0 407.992,0L119.992,0C115.574,0 111.992,3.582 111.992,8L111.992,25.969L5.801,56.313C3.703,56.91 1.941,58.34 0.926,60.27C-0.094,62.199 -0.281,64.457 0.41,66.527L111.992,401.289L111.992,472C111.992,476.418 115.574,480 119.992,480L471.992,480C476.41,480 479.992,476.418 479.992,472L479.992,72C479.887,71.133 479.715,70.273 479.48,69.434ZM452.68,64L415.992,64L415.992,27.313L452.68,64ZM18.227,69.398L111.992,42.609L111.992,350.703L18.227,69.398ZM127.992,464L127.992,16L399.992,16L399.992,72C399.992,76.418 403.574,80 407.992,80L463.992,80L463.992,464L127.992,464Z" style="fill-rule:nonzero;"/>
</svg>