<svg width="64" height="69" viewBox="0 0 64 69" fill="none" xmlns="http://www.w3.org/2000/svg">
<path d="M32.625 1L2.125 18H19.125M32.625 1L62.125 18H47.375M32.625 1L19.125 18M32.625 1L47.375 18M32.625 1V18M19.125 18H30.125M32.625 18H30.125M32.625 18H35.625M47.375 18H35.625M30.125 18V29M30.125 29L35.625 34.5M30.125 29L24.125 23L2.125 43L5.125 47.5L8.125 45M35.625 34.5V18M35.625 34.5L45.125 44L41.125 47.5L38.625 45M38.625 45L24.125 30.5L8.125 45M38.625 45V68M38.625 68H8.125V45M38.625 68H62.125M11.625 51C11.625 51 13.1963 47.6286 15.125 47.5C17.1961 47.3619 19.125 51 19.125 51M28.125 51C28.125 51 29.6963 47.6286 31.625 47.5C33.6961 47.3619 35.625 51 35.625 51M15.125 58C15.125 58 15.625 61.5 23.125 61.5C30.625 61.5 31.625 58 31.625 58" stroke="white"/>
</svg>
