<svg width="50" height="74" viewBox="0 0 50 74" fill="none" xmlns="http://www.w3.org/2000/svg">
<path d="M0.53125 22.3125V73.3125H48.5312V22.3125M0.53125 22.3125L25.5312 7.3125L48.5312 22.3125M0.53125 22.3125V16.3125L25.5312 0.8125L48.5312 16.3125V22.3125M11.5312 36.8125V30.8125H18.0312M39.5312 30.8125H38.0312M36.5312 38.3125H38.0312M38.0312 38.3125H39.5312V34.3125H36.5312V30.8125H38.0312M38.0312 38.3125V40.3125M38.0312 30.8125V28.8125M6.53125 25.3125H44.0312V43.3125H6.53125V25.3125ZM6.53125 47.8125H14.5312V55.8125H6.53125V47.8125ZM6.53125 60.3125H14.5312V68.3125H6.53125V60.3125ZM19.0312 60.3125H27.0312V68.3125H19.0312V60.3125ZM19.0312 47.8125H27.0312V55.8125H19.0312V47.8125ZM31.0312 47.8125H44.0312V68.3125H31.0312V47.8125Z" stroke="white"/>
</svg>
