<svg xmlns="http://www.w3.org/2000/svg" fill="#fff" viewBox="0 0 480 480" style="fill-rule:evenodd;clip-rule:evenodd;stroke-linejoin:round;stroke-miterlimit:2;">
    <path d="M244.801,177.559C241.957,175.426 238.043,175.426 235.199,177.559L139.199,249.559C137.188,251.07 136,253.441 136,255.961L136,391.961C136,396.379 139.582,399.961 144,399.961L336,399.961C340.418,399.961 344,396.379 344,391.961L344,255.961C344,253.441 342.813,251.07 340.801,249.559L244.801,177.559ZM152,259.961L240,193.961L328,259.961L328,279.961L244.801,217.559C241.957,215.426 238.043,215.426 235.199,217.559L152,279.961L152,259.961ZM216,383.961L216,327.961C216,314.707 226.746,303.961 240,303.961C253.254,303.961 264,314.707 264,327.961L264,383.961L216,383.961ZM328,383.961L280,383.961L280,327.961C280,305.867 262.09,287.961 240,287.961C217.91,287.961 200,305.867 200,327.961L200,383.961L152,383.961L152,299.961L240,233.961L328,299.961L328,383.961Z" style="fill-rule:nonzero;"/>
    <rect x="136" y="415.961" width="208" height="16" style="fill-rule:nonzero;"/>
    <path d="M384,143.961L432,143.961L432,191.961L448,191.961L448,127.961L384,127.961L384,143.961Z" style="fill-rule:nonzero;"/>
    <path d="M472,95.961L448,95.961L448,71.961C448,67.543 444.418,63.961 440,63.961L297.887,63.961L171.574,0.801C171.434,0.727 171.266,0.742 171.121,0.68C170.434,0.387 169.707,0.191 168.969,0.098C168.719,0.098 168.488,0.016 168.238,0.008C167.336,-0.031 166.434,0.082 165.566,0.352L165.449,0.352L117.449,16.352C116.574,16.664 115.762,17.121 115.047,17.711C114.848,17.887 114.652,18.07 114.473,18.266C113.953,18.762 113.508,19.336 113.152,19.961C113.062,20.113 112.91,20.199 112.832,20.359L91.055,63.961L72,63.961C71.848,63.961 71.719,64.039 71.566,64.047C70.805,64.09 70.055,64.238 69.336,64.496C69.113,64.574 68.879,64.641 68.664,64.734C67.816,65.113 67.043,65.637 66.375,66.281L66.336,66.281L18.336,114.281C17.703,114.945 17.184,115.715 16.809,116.551C16.707,116.797 16.617,117.047 16.543,117.305C16.305,117.984 16.16,118.695 16.113,119.414C16.113,119.594 16.016,119.734 16.016,119.91L16.016,143.91L8,143.91C3.582,143.91 -0,147.492 -0,151.91L-0,471.961C-0,476.379 3.582,479.961 8,479.961L472,479.961C476.418,479.961 480,476.379 480,471.961L480,103.961C480,99.543 476.418,95.961 472,95.961ZM140.855,25.441L152.207,21.656L148.426,29.223L140.855,25.441ZM123.574,34.695L148.426,47.16C149.465,47.664 150.602,47.938 151.762,47.961C151.832,47.961 151.91,48.016 151.992,48.016C152.809,48.008 153.617,47.871 154.391,47.617C154.551,47.566 154.695,47.48 154.855,47.414C155.566,47.141 156.23,46.77 156.832,46.305C157.031,46.152 157.215,46.008 157.398,45.84C158.117,45.203 158.715,44.441 159.16,43.594L171.574,18.75L262.113,63.961L108.945,63.961L123.574,34.695ZM64,91.273L64,111.961L43.313,111.961L64,91.273ZM32,127.961L72,127.961C76.418,127.961 80,124.379 80,119.961L80,79.961L432,79.961L432,95.961L265.297,95.961C251.52,95.949 239.285,104.766 234.945,117.84L226.23,143.961L32,143.961L32,127.961ZM464,463.961L16,463.961L16,159.961L232,159.961C235.445,159.961 238.504,157.758 239.594,154.488L250.121,122.902C252.297,116.371 258.41,111.961 265.297,111.961L464,111.961L464,463.961Z" style="fill-rule:nonzero;"/>
</svg>