<svg width="16" height="837" viewBox="0 0 16 837" fill="none" xmlns="http://www.w3.org/2000/svg">
<rect x="14.3338" y="7.01367" width="9.05411" height="8.86076" transform="rotate(135 14.3338 7.01367)" fill="url(#paint0_linear_212_273)" stroke="#F1D299"/>
<line x1="8.54089" y1="13.041" x2="8.54089" y2="139.041" stroke="#F1D299"/>
<line x1="8.54089" y1="151.041" x2="8.54089" y2="276.041" stroke="#F1D299"/>
<line x1="8.54089" y1="288.041" x2="8.54089" y2="419.041" stroke="#F1D299"/>
<rect x="14.3338" y="282.014" width="9.05411" height="8.86076" transform="rotate(135 14.3338 282.014)" fill="url(#paint1_linear_212_273)" stroke="#F1D299"/>
<path d="M14.3338 145.014L7.93156 151.416L1.66606 145.15L8.06828 138.748L14.3338 145.014Z" fill="url(#paint2_linear_212_273)" stroke="#F1D299"/>
<path d="M14.3338 145.014L7.93156 151.416L1.66606 145.15L8.06828 138.748L14.3338 145.014Z" fill="url(#paint3_linear_212_273)" stroke="#F1D299"/>
<line x1="8.54089" y1="430.041" x2="8.54089" y2="555.041" stroke="#F1D299"/>
<line x1="8.54089" y1="567.041" x2="8.54089" y2="692.041" stroke="#F1D299"/>
<rect x="14.3338" y="424.014" width="9.05411" height="8.86076" transform="rotate(135 14.3338 424.014)" fill="url(#paint4_linear_212_273)" stroke="#F1D299"/>
<rect x="14.3338" y="698.014" width="9.05411" height="8.86076" transform="rotate(135 14.3338 698.014)" fill="url(#paint5_linear_212_273)" stroke="#F1D299"/>
<rect x="14.3338" y="561.014" width="9.05411" height="8.86076" transform="rotate(135 14.3338 561.014)" fill="url(#paint6_linear_212_273)" stroke="#F1D299"/>
<path d="M7.68734 836.395C7.8826 836.59 8.19918 836.59 8.39445 836.395L11.5764 833.213C11.7717 833.017 11.7717 832.701 11.5764 832.505C11.3812 832.31 11.0646 832.31 10.8693 832.505L8.04089 835.334L5.21247 832.505C5.0172 832.31 4.70062 832.31 4.50536 832.505C4.3101 832.701 4.3101 833.017 4.50536 833.213L7.68734 836.395ZM7.54089 704.041L7.54089 836.041H8.54089L8.54089 704.041H7.54089Z" fill="#F1D299"/>
<defs>
<linearGradient id="paint0_linear_212_273" x1="15.056" y1="16.8893" x2="24.9457" y2="6.86632" gradientUnits="userSpaceOnUse">
<stop offset="0.471536" stop-color="#003F46"/>
<stop offset="0.875658" stop-color="#003F46" stop-opacity="0"/>
</linearGradient>
<linearGradient id="paint1_linear_212_273" x1="15.056" y1="291.889" x2="24.9457" y2="281.866" gradientUnits="userSpaceOnUse">
<stop offset="0.471536" stop-color="#003F46"/>
<stop offset="0.875658" stop-color="#003F46" stop-opacity="0"/>
</linearGradient>
<linearGradient id="paint2_linear_212_273" x1="8.04707" y1="138.041" x2="8.14136" y2="152.121" gradientUnits="userSpaceOnUse">
<stop offset="0.471536" stop-color="#003F46"/>
<stop offset="0.875658" stop-color="#003F46" stop-opacity="0"/>
</linearGradient>
<linearGradient id="paint3_linear_212_273" x1="8.04707" y1="138.041" x2="8.14136" y2="152.121" gradientUnits="userSpaceOnUse">
<stop offset="0.471536" stop-color="#003F46"/>
<stop offset="0.875658" stop-color="#003F46" stop-opacity="0"/>
</linearGradient>
<linearGradient id="paint4_linear_212_273" x1="15.056" y1="433.889" x2="24.9457" y2="423.866" gradientUnits="userSpaceOnUse">
<stop offset="0.471536" stop-color="#003F46"/>
<stop offset="0.875658" stop-color="#003F46" stop-opacity="0"/>
</linearGradient>
<linearGradient id="paint5_linear_212_273" x1="15.056" y1="707.889" x2="24.9457" y2="697.866" gradientUnits="userSpaceOnUse">
<stop offset="0.471536" stop-color="#003F46"/>
<stop offset="0.875658" stop-color="#003F46" stop-opacity="0"/>
</linearGradient>
<linearGradient id="paint6_linear_212_273" x1="15.056" y1="570.889" x2="24.9457" y2="560.866" gradientUnits="userSpaceOnUse">
<stop offset="0.471536" stop-color="#003F46"/>
<stop offset="0.875658" stop-color="#003F46" stop-opacity="0"/>
</linearGradient>
</defs>
</svg>
