<svg width="70" height="66" viewBox="0 0 70 66" fill="none" xmlns="http://www.w3.org/2000/svg">
<line y1="11.5" x2="17" y2="11.5" stroke="#F1D299"/>
<line y1="18.5" x2="14" y2="18.5" stroke="#F1D299"/>
<line y1="25.5" x2="14" y2="25.5" stroke="#F1D299"/>
<line y1="32.5" x2="17" y2="32.5" stroke="#F1D299"/>
<line x1="54" y1="11.5" x2="70" y2="11.5" stroke="#F1D299"/>
<line x1="57" y1="18.5" x2="70" y2="18.5" stroke="#F1D299"/>
<line x1="57" y1="25.5" x2="70" y2="25.5" stroke="#F1D299"/>
<line x1="53" y1="32.5" x2="70" y2="32.5" stroke="#F1D299"/>
<line x1="24" y1="4.5" x2="47" y2="4.5" stroke="#F1D299"/>
<line x1="15" y1="16.5" x2="55" y2="16.5" stroke="#F1D299"/>
<line x1="15" y1="28.5" x2="55" y2="28.5" stroke="#F1D299"/>
<line x1="24" y1="39.5" x2="45" y2="39.5" stroke="#F1D299"/>
<g filter="url(#filter0_d_259_2)">
<ellipse cx="35.6509" cy="21.2673" rx="21.6509" ry="21.2673" fill="url(#paint0_linear_259_2)" fill-opacity="0.52" shape-rendering="crispEdges"/>
<path d="M56.8017 21.2673C56.8017 32.7284 47.3406 42.0346 35.6509 42.0346C23.9611 42.0346 14.5 32.7284 14.5 21.2673C14.5 9.80623 23.9611 0.5 35.6509 0.5C47.3406 0.5 56.8017 9.80623 56.8017 21.2673Z" stroke="white" shape-rendering="crispEdges"/>
</g>
<path d="M46.8044 39.0624C46.8044 39.0624 51.6906 45.8344 54.0773 48.7403" stroke="white"/>
<g style="mix-blend-mode:darken">
<path d="M52.005 50.3387L56.311 46.9703L67.3568 61.1924L62.6763 64.3736L52.005 50.3387Z" fill="url(#paint1_linear_259_2)"/>
</g>
<rect x="0.702684" y="0.0997147" width="5.36691" height="17.7069" transform="matrix(0.801662 -0.597777 0.603706 0.797207 51.5225 50.6551)" fill="#003F46" stroke="white"/>
<defs>
<filter id="filter0_d_259_2" x="10" y="0" width="51.3017" height="50.5347" filterUnits="userSpaceOnUse" color-interpolation-filters="sRGB">
<feFlood flood-opacity="0" result="BackgroundImageFix"/>
<feColorMatrix in="SourceAlpha" type="matrix" values="0 0 0 0 0 0 0 0 0 0 0 0 0 0 0 0 0 0 127 0" result="hardAlpha"/>
<feOffset dy="4"/>
<feGaussianBlur stdDeviation="2"/>
<feComposite in2="hardAlpha" operator="out"/>
<feColorMatrix type="matrix" values="0 0 0 0 0 0 0 0 0 0 0 0 0 0 0 0 0 0 1 0"/>
<feBlend mode="normal" in2="BackgroundImageFix" result="effect1_dropShadow_259_2"/>
<feBlend mode="normal" in="SourceGraphic" in2="effect1_dropShadow_259_2" result="shape"/>
</filter>
<linearGradient id="paint0_linear_259_2" x1="33" y1="21" x2="45" y2="39" gradientUnits="userSpaceOnUse">
<stop stop-color="#003F46"/>
<stop offset="1" stop-color="#003F46" stop-opacity="0"/>
</linearGradient>
<linearGradient id="paint1_linear_259_2" x1="62.088" y1="65.5373" x2="66.771" y2="50.0206" gradientUnits="userSpaceOnUse">
<stop stop-color="#003F46"/>
<stop offset="0.827818" stop-color="#003F46" stop-opacity="0"/>
</linearGradient>
</defs>
</svg>
