<svg width="75" height="67" viewBox="0 0 75 67" fill="none" xmlns="http://www.w3.org/2000/svg">
<path d="M72.4999 63H3.99994V56.5L72.4999 0V63Z" fill="url(#paint0_linear_212_305)"/>
<path d="M4.35349 8.14644C4.15823 7.95118 3.84165 7.95118 3.64639 8.14644L0.464405 11.3284C0.269143 11.5237 0.269143 11.8403 0.464405 12.0355C0.659667 12.2308 0.97625 12.2308 1.17151 12.0355L3.99994 9.2071L6.82837 12.0355C7.02363 12.2308 7.34021 12.2308 7.53547 12.0355C7.73074 11.8403 7.73074 11.5237 7.53547 11.3284L4.35349 8.14644ZM4.49994 62.5L4.49994 8.5L3.49994 8.5L3.49994 62.5L4.49994 62.5Z" fill="#F1D299"/>
<path d="M74.3535 63.0647C74.5488 62.8695 74.5488 62.5529 74.3535 62.3576L71.1715 59.1756C70.9762 58.9804 70.6597 58.9804 70.4644 59.1756C70.2691 59.3709 70.2691 59.6875 70.4644 59.8828L73.2928 62.7112L70.4644 65.5396C70.2691 65.7349 70.2691 66.0515 70.4644 66.2467C70.6597 66.442 70.9762 66.442 71.1715 66.2467L74.3535 63.0647ZM3.99994 63.2112H73.9999V62.2112H3.99994V63.2112Z" fill="#F1D299"/>
<line x1="14.4999" y1="62.5" x2="14.4999" y2="51.5" stroke="white"/>
<line x1="40.4999" y1="62.5" x2="40.4999" y2="29.5" stroke="white"/>
<line x1="26.4999" y1="62.5" x2="26.4999" y2="45.5" stroke="white"/>
<path d="M56.9999 62.5V15.5" stroke="white"/>
<circle cx="14.9999" cy="47.5" r="1.5" stroke="white"/>
<path d="M27.8523 40.8939C27.8523 41.8356 27.0974 42.5909 26.1761 42.5909C25.2549 42.5909 24.4999 41.8356 24.4999 40.8939C24.4999 39.9522 25.2549 39.197 26.1761 39.197C27.0974 39.197 27.8523 39.9522 27.8523 40.8939ZM41.961 25C41.961 25.9417 41.2061 26.697 40.2848 26.697C39.3636 26.697 38.6086 25.9417 38.6086 25C38.6086 24.0583 39.3636 23.303 40.2848 23.303C41.2061 23.303 41.961 24.0583 41.961 25ZM58.65 10.697C58.65 11.6387 57.895 12.3939 56.9738 12.3939C56.0525 12.3939 55.2976 11.6387 55.2976 10.697C55.2976 9.75527 56.0525 9 56.9738 9C57.895 9 58.65 9.75527 58.65 10.697Z" stroke="white"/>
<line x1="41.6597" y1="24.1336" x2="55.6597" y2="11.1336" stroke="white"/>
<path d="M27.9998 39.5001L38.9999 26.5M16.9999 47.0001L24.4999 42.0001" stroke="white"/>
<defs>
<linearGradient id="paint0_linear_212_305" x1="89.4999" y1="59.5" x2="58.4999" y2="4" gradientUnits="userSpaceOnUse">
<stop stop-color="#003F46"/>
<stop offset="1" stop-color="#003F46" stop-opacity="0"/>
</linearGradient>
</defs>
</svg>
