<svg width="60" height="67" viewBox="0 0 60 67" fill="none" xmlns="http://www.w3.org/2000/svg">
<mask id="mask0_212_379" style="mask-type:alpha" maskUnits="userSpaceOnUse" x="0" y="0" width="60" height="67">
<rect width="60" height="67" fill="#C4C4C4"/>
</mask>
<g mask="url(#mask0_212_379)">
<path d="M6.50002 66.5L6.5 35.5H36.625L36.625 66.5L6.50002 66.5Z" fill="url(#paint0_linear_212_379)"/>
<path d="M36.625 44L39.125 46.5L43.125 43L33.625 33.5L28.125 28L22.125 22L0.125 42L3.125 46.5L6.125 44M36.625 44L22.125 29.5L6.125 44M36.625 44V67H6.125V44M9.625 50C9.625 50 11.1963 46.6286 13.125 46.5C15.1961 46.3619 17.125 50 17.125 50M26.125 50C26.125 50 27.6963 46.6286 29.625 46.5C31.6961 46.3619 33.625 50 33.625 50M13.125 57C13.125 57 13.625 60.5 21.125 60.5C28.625 60.5 29.625 57 29.625 57" stroke="white"/>
<path d="M30.5 0L0 17H17M30.5 0L60 17H45.25M30.5 0L17 17M30.5 0L45.25 17M30.5 0V17M17 17H28M30.5 17H28M30.5 17H33.5M45.25 17H33.5M28 17V28L33.5 33.5V17M36.5 67H60" stroke="#F1D299"/>
</g>
<defs>
<linearGradient id="paint0_linear_212_379" x1="53" y1="62.3125" x2="48.8997" y2="27.1427" gradientUnits="userSpaceOnUse">
<stop stop-color="#003F46"/>
<stop offset="0.827818" stop-color="#003F46" stop-opacity="0"/>
</linearGradient>
</defs>
</svg>
