<svg width="837" height="15" viewBox="0 0 837 15" fill="none" xmlns="http://www.w3.org/2000/svg">
<rect x="6.9726" y="0.707107" width="9.05411" height="8.86076" transform="rotate(45 6.9726 0.707107)" fill="url(#paint0_linear_212_273)" stroke="#F1D299"/>
<line x1="13" y1="6.5" x2="139" y2="6.5" stroke="#F1D299"/>
<line x1="151" y1="6.5" x2="276" y2="6.5" stroke="#F1D299"/>
<line x1="288" y1="6.5" x2="419" y2="6.5" stroke="#F1D299"/>
<rect x="281.973" y="0.707107" width="9.05411" height="8.86076" transform="rotate(45 281.973 0.707107)" fill="url(#paint1_linear_212_273)" stroke="#F1D299"/>
<path d="M144.973 0.707107L151.375 7.10933L145.109 13.3748L138.707 6.97261L144.973 0.707107Z" fill="url(#paint2_linear_212_273)" stroke="#F1D299"/>
<path d="M144.973 0.707107L151.375 7.10933L145.109 13.3748L138.707 6.97261L144.973 0.707107Z" fill="url(#paint3_linear_212_273)" stroke="#F1D299"/>
<line x1="430" y1="6.5" x2="555" y2="6.5" stroke="#F1D299"/>
<line x1="567" y1="6.5" x2="692" y2="6.5" stroke="#F1D299"/>
<rect x="423.973" y="0.707107" width="9.05411" height="8.86076" transform="rotate(45 423.973 0.707107)" fill="url(#paint4_linear_212_273)" stroke="#F1D299"/>
<rect x="697.973" y="0.707107" width="9.05411" height="8.86076" transform="rotate(45 697.973 0.707107)" fill="url(#paint5_linear_212_273)" stroke="#F1D299"/>
<rect x="560.973" y="0.707107" width="9.05411" height="8.86076" transform="rotate(45 560.973 0.707107)" fill="url(#paint6_linear_212_273)" stroke="#F1D299"/>
<path d="M836.354 7.35355C836.549 7.15829 836.549 6.84171 836.354 6.64645L833.172 3.46447C832.976 3.2692 832.66 3.2692 832.464 3.46447C832.269 3.65973 832.269 3.97631 832.464 4.17157L835.293 7L832.464 9.82843C832.269 10.0237 832.269 10.3403 832.464 10.5355C832.66 10.7308 832.976 10.7308 833.172 10.5355L836.354 7.35355ZM704 7.5L836 7.5V6.5L704 6.5V7.5Z" fill="#F1D299"/>
<defs>
<linearGradient id="paint0_linear_212_273" x1="6.98769" y1="9.87566" x2="16.8774" y2="-0.147356" gradientUnits="userSpaceOnUse">
<stop offset="0.471536" stop-color="#003F46"/>
<stop offset="0.875658" stop-color="#003F46" stop-opacity="0"/>
</linearGradient>
<linearGradient id="paint1_linear_212_273" x1="281.988" y1="9.87566" x2="291.877" y2="-0.147356" gradientUnits="userSpaceOnUse">
<stop offset="0.471536" stop-color="#003F46"/>
<stop offset="0.875658" stop-color="#003F46" stop-opacity="0"/>
</linearGradient>
<linearGradient id="paint2_linear_212_273" x1="138" y1="6.99382" x2="152.08" y2="6.89953" gradientUnits="userSpaceOnUse">
<stop offset="0.471536" stop-color="#003F46"/>
<stop offset="0.875658" stop-color="#003F46" stop-opacity="0"/>
</linearGradient>
<linearGradient id="paint3_linear_212_273" x1="138" y1="6.99382" x2="152.08" y2="6.89953" gradientUnits="userSpaceOnUse">
<stop offset="0.471536" stop-color="#003F46"/>
<stop offset="0.875658" stop-color="#003F46" stop-opacity="0"/>
</linearGradient>
<linearGradient id="paint4_linear_212_273" x1="423.988" y1="9.87566" x2="433.877" y2="-0.147356" gradientUnits="userSpaceOnUse">
<stop offset="0.471536" stop-color="#003F46"/>
<stop offset="0.875658" stop-color="#003F46" stop-opacity="0"/>
</linearGradient>
<linearGradient id="paint5_linear_212_273" x1="697.988" y1="9.87566" x2="707.877" y2="-0.147356" gradientUnits="userSpaceOnUse">
<stop offset="0.471536" stop-color="#003F46"/>
<stop offset="0.875658" stop-color="#003F46" stop-opacity="0"/>
</linearGradient>
<linearGradient id="paint6_linear_212_273" x1="560.988" y1="9.87566" x2="570.877" y2="-0.147356" gradientUnits="userSpaceOnUse">
<stop offset="0.471536" stop-color="#003F46"/>
<stop offset="0.875658" stop-color="#003F46" stop-opacity="0"/>
</linearGradient>
</defs>
</svg>
