<svg width="151" height="175" viewBox="0 0 151 175" fill="none" xmlns="http://www.w3.org/2000/svg">
<g filter="url(#filter0_d)">
<path d="M118.646 56.8242C118.646 87.6386 93.222 112.648 61.823 112.648C30.424 112.648 5 87.6386 5 56.8242C5 26.0097 30.424 1 61.823 1C93.222 1 118.646 26.0097 118.646 56.8242Z" stroke="#F1D299" stroke-width="2" shape-rendering="crispEdges"/>
</g>
<path d="M91.6107 104.371C91.6107 104.371 104.66 122.465 111.035 130.229" stroke="#F1D299" stroke-width="2"/>
<g style="mix-blend-mode:darken">
<path d="M105.5 134.5L117 125.5L146.5 163.5L134 172L105.5 134.5Z" fill="url(#paint0_linear)"/>
</g>
<rect x="1.40507" y="0.199387" width="15.0069" height="47.9748" transform="matrix(0.801534 -0.59795 0.603534 0.797337 104.159 135.05)" stroke="#F1D299" stroke-width="2"/>
<defs>
<filter id="filter0_d" x="0" y="0" width="123.646" height="121.648" filterUnits="userSpaceOnUse" color-interpolation-filters="sRGB">
<feFlood flood-opacity="0" result="BackgroundImageFix"/>
<feColorMatrix in="SourceAlpha" type="matrix" values="0 0 0 0 0 0 0 0 0 0 0 0 0 0 0 0 0 0 127 0" result="hardAlpha"/>
<feOffset dy="4"/>
<feGaussianBlur stdDeviation="2"/>
<feComposite in2="hardAlpha" operator="out"/>
<feColorMatrix type="matrix" values="0 0 0 0 0 0 0 0 0 0 0 0 0 0 0 0 0 0 1 0"/>
<feBlend mode="normal" in2="BackgroundImageFix" result="effect1_dropShadow"/>
<feBlend mode="normal" in="SourceGraphic" in2="effect1_dropShadow" result="shape"/>
</filter>
<linearGradient id="paint0_linear" x1="132.428" y1="175.109" x2="144.946" y2="133.653" gradientUnits="userSpaceOnUse">
<stop stop-color="#003F46"/>
<stop offset="0.827818" stop-color="#003F46" stop-opacity="0"/>
</linearGradient>
</defs>
</svg>
