<svg width="64" height="67" viewBox="0 0 64 67" fill="none" xmlns="http://www.w3.org/2000/svg">
<path d="M59 29.5C59 42.5277 49.4219 53.3597 36.8001 55.5825C35.2424 55.8568 33.6382 56 32 56C30.3618 56 28.7576 55.8568 27.1999 55.5825C14.5781 53.3597 5 42.5277 5 29.5C5 16.4723 14.5781 5.64033 27.1999 3.41754C28.7576 3.1432 30.3618 3 32 3C33.6382 3 35.2424 3.1432 36.8001 3.41754C49.4219 5.64033 59 16.4723 59 29.5Z" fill="url(#paint0_linear_212_399)" fill-opacity="0.52"/>
<g filter="url(#filter0_d_212_399)">
<path d="M32 56C30.3618 56 28.7576 55.8565 27.1999 55.5815C14.5781 53.3534 5 42.4955 5 29.4368C5 16.378 14.5781 5.52015 27.1999 3.29205M27.1999 3.29205L24.953 7.8696M27.1999 3.29205L22.4589 1" stroke="white"/>
</g>
<g filter="url(#filter1_d_212_399)">
<path d="M32 3C33.6382 3 35.2424 3.14204 36.8001 3.41416C49.4219 5.61895 59 16.3633 59 29.2854C59 42.2076 49.4219 52.9519 36.8001 55.1567M36.8001 55.1567L39.4824 50.5843M36.8001 55.1567L40.7294 58" stroke="#F1D299"/>
</g>
<path d="M19 29.9794V25.2252L31.2252 13L44.1296 25.2252V29.9794M19 29.9794V43.563H44.1296V29.9794M19 29.9794L31.2252 18.4334L44.1296 29.9794" stroke="#F1D299"/>
<path d="M19 29.9794L31.2252 18.4333L44.1296 29.9794" stroke="white"/>
<rect x="28.5" y="31.5" width="7" height="12" stroke="white"/>
<defs>
<filter id="filter0_d_212_399" x="0.5" y="0.549805" width="35.5" height="63.9502" filterUnits="userSpaceOnUse" color-interpolation-filters="sRGB">
<feFlood flood-opacity="0" result="BackgroundImageFix"/>
<feColorMatrix in="SourceAlpha" type="matrix" values="0 0 0 0 0 0 0 0 0 0 0 0 0 0 0 0 0 0 127 0" result="hardAlpha"/>
<feOffset dy="4"/>
<feGaussianBlur stdDeviation="2"/>
<feComposite in2="hardAlpha" operator="out"/>
<feColorMatrix type="matrix" values="0 0 0 0 0 0 0 0 0 0 0 0 0 0 0 0 0 0 1 0"/>
<feBlend mode="normal" in2="BackgroundImageFix" result="effect1_dropShadow_212_399"/>
<feBlend mode="normal" in="SourceGraphic" in2="effect1_dropShadow_212_399" result="shape"/>
</filter>
<filter id="filter1_d_212_399" x="28" y="2.5" width="35.5" height="63.905" filterUnits="userSpaceOnUse" color-interpolation-filters="sRGB">
<feFlood flood-opacity="0" result="BackgroundImageFix"/>
<feColorMatrix in="SourceAlpha" type="matrix" values="0 0 0 0 0 0 0 0 0 0 0 0 0 0 0 0 0 0 127 0" result="hardAlpha"/>
<feOffset dy="4"/>
<feGaussianBlur stdDeviation="2"/>
<feComposite in2="hardAlpha" operator="out"/>
<feColorMatrix type="matrix" values="0 0 0 0 0 0 0 0 0 0 0 0 0 0 0 0 0 0 1 0"/>
<feBlend mode="normal" in2="BackgroundImageFix" result="effect1_dropShadow_212_399"/>
<feBlend mode="normal" in="SourceGraphic" in2="effect1_dropShadow_212_399" result="shape"/>
</filter>
<linearGradient id="paint0_linear_212_399" x1="5" y1="41.6274" x2="58.6062" y2="14.8023" gradientUnits="userSpaceOnUse">
<stop stop-color="#003F46"/>
<stop offset="1" stop-color="#003F46" stop-opacity="0"/>
</linearGradient>
</defs>
</svg>
