<svg width="27" height="843" viewBox="0 0 27 843" fill="none" xmlns="http://www.w3.org/2000/svg">
<rect x="26.018" y="13.1766" width="18" height="17.6346" transform="rotate(135 26.018 13.1766)" fill="url(#paint0_linear_212_273)" stroke="#F1D299"/>
<line x1="13.2251" y1="26.3065" x2="13.2251" y2="151.235" stroke="#F1D299"/>
<line x1="13.2251" y1="169.307" x2="13.2251" y2="287.307" stroke="#F1D299"/>
<line x1="13.2251" y1="305.307" x2="13.2251" y2="429.307" stroke="#F1D299"/>
<rect x="-0.71012" width="18" height="17.6346" transform="matrix(-0.71012 0.70408 -0.71012 -0.70408 25.5107 293.491)" fill="url(#paint1_linear_212_273)" stroke="#F1D299"/>
<path d="M26.015 157.156L13.2328 169.83L0.710115 157.414L13.4923 144.74L26.015 157.156Z" fill="url(#paint2_linear_212_273)" stroke="#F1D299"/>
<line x1="13.2251" y1="446.305" x2="13.503" y2="539.999" stroke="#F1D299"/>
<line x1="13.5" y1="565" x2="13.5019" y2="708" stroke="#F1D299"/>
<rect x="-0.71012" width="18" height="17.6346" transform="matrix(-0.71012 0.70408 -0.71012 -0.70408 25.5107 434.284)" fill="url(#paint3_linear_212_273)" stroke="#F1D299"/>
<rect x="-0.71012" width="18" height="17.6346" transform="matrix(-0.71012 0.70408 -0.71012 -0.70408 25.5107 720.953)" fill="url(#paint4_linear_212_273)" stroke="#F1D299"/>
<rect x="-0.71012" width="18" height="17.6346" transform="matrix(-0.71012 0.70408 -0.71012 -0.70408 25.5107 553.118)" fill="url(#paint5_linear_212_273)" stroke="#F1D299"/>
<path d="M12.3707 842.659C12.5654 842.855 12.882 842.856 13.0778 842.661L16.2677 839.487C16.4635 839.292 16.4643 838.976 16.2695 838.78C16.0747 838.584 15.7582 838.583 15.5624 838.778L12.7269 841.599L9.90557 838.764C9.7108 838.568 9.39422 838.567 9.19847 838.762C9.00271 838.957 9.00192 839.273 9.19669 839.469L12.3707 842.659ZM12.5 732.999L12.2251 842.305L13.2251 842.308L13.5 733.001L12.5 732.999Z" fill="#F1D299"/>
<defs>
<linearGradient id="paint0_linear_212_273" x1="26.7536" y1="31.8394" x2="45.4429" y2="12.8982" gradientUnits="userSpaceOnUse">
<stop offset="0.471536" stop-color="#003F46"/>
<stop offset="0.875658" stop-color="#003F46" stop-opacity="0"/>
</linearGradient>
<linearGradient id="paint1_linear_212_273" x1="0.0285303" y1="18.6628" x2="18.7178" y2="-0.278468" gradientUnits="userSpaceOnUse">
<stop offset="0.471536" stop-color="#003F46"/>
<stop offset="0.875658" stop-color="#003F46" stop-opacity="0"/>
</linearGradient>
<linearGradient id="paint2_linear_212_273" x1="13.452" y1="144.036" x2="13.6279" y2="170.531" gradientUnits="userSpaceOnUse">
<stop offset="0.471536" stop-color="#003F46"/>
<stop offset="0.875658" stop-color="#003F46" stop-opacity="0"/>
</linearGradient>
<linearGradient id="paint3_linear_212_273" x1="0.0285303" y1="18.6628" x2="18.7178" y2="-0.278468" gradientUnits="userSpaceOnUse">
<stop offset="0.471536" stop-color="#003F46"/>
<stop offset="0.875658" stop-color="#003F46" stop-opacity="0"/>
</linearGradient>
<linearGradient id="paint4_linear_212_273" x1="0.0285303" y1="18.6628" x2="18.7178" y2="-0.278468" gradientUnits="userSpaceOnUse">
<stop offset="0.471536" stop-color="#003F46"/>
<stop offset="0.875658" stop-color="#003F46" stop-opacity="0"/>
</linearGradient>
<linearGradient id="paint5_linear_212_273" x1="0.0285303" y1="18.6628" x2="18.7178" y2="-0.278468" gradientUnits="userSpaceOnUse">
<stop offset="0.471536" stop-color="#003F46"/>
<stop offset="0.875658" stop-color="#003F46" stop-opacity="0"/>
</linearGradient>
</defs>
</svg>
