<svg width="47" height="64" viewBox="0 0 47 64" fill="none" xmlns="http://www.w3.org/2000/svg">
<mask id="mask0_212_324" style="mask-type:alpha" maskUnits="userSpaceOnUse" x="0" y="0" width="47" height="64">
<rect width="47" height="64" fill="#C4C4C4"/>
</mask>
<g mask="url(#mask0_212_324)">
<path d="M1.32935 64.2499L1.32936 1.59111H36.6705L46.6705 9.74994V64.2499H1.32935Z" fill="url(#paint0_linear_212_324)"/>
<path d="M37.6822 2.02112H1.15741V64.3651H46.4985V10.2077M37.6822 2.02112L46.4985 10.2077M37.6822 2.02112C37.6822 2.02112 37.6822 17.1348 37.6822 11.4672C37.6822 5.79954 46.4985 10.2077 46.4985 10.2077M36.4227 43.5838H42.0903V32.2485H38.3119L34.5335 26.5809H18.1603V29.4147M36.4227 43.5838V41.0648L26.3469 32.2485H18.1603V29.4147M36.4227 43.5838L33.274 44.2135M18.1603 29.4147H5.56557V38.5459H8.71426V41.6946H12.4927L15.0116 44.2135M27.6064 51.1406L25.0874 53.6596L23.828 53.0298M27.6064 51.1406L22.5685 46.1027M27.6064 51.1406L30.1253 47.9919M30.1253 47.9919L25.7172 43.5838M30.1253 47.9919L33.274 44.2135M33.274 44.2135L28.8659 40.4351M8.71426 42.954L8.08452 44.8433L10.9183 47.6771M23.828 53.0298L19.4198 56.1785L17.5306 54.2893M23.828 53.0298L21.309 50.5109M17.5306 54.2893L21.309 50.5109M17.5306 54.2893L14.3819 51.1406M21.309 50.5109L18.1603 47.3622M14.3819 51.1406L18.1603 47.3622M14.3819 51.1406L10.9183 47.6771M18.1603 47.3622L15.0116 44.2135M10.9183 47.6771L15.0116 44.2135" stroke="white"/>
<path d="M31.3848 55.5489H42.7201M31.3848 58.6976H42.7201M16.2711 12.7268V20.9134H19.4198M16.2711 12.7268H13.1224L22.5685 5.79968L31.3848 12.7268H28.2361M16.2711 12.7268H28.2361M28.2361 12.7268V20.9134H24.4577M19.4198 20.9134V15.8755H24.4577V20.9134M19.4198 20.9134H24.4577" stroke="#F1D299"/>
</g>
<defs>
<linearGradient id="paint0_linear_212_324" x1="1.67053" y1="-0.908876" x2="48.9602" y2="61.9602" gradientUnits="userSpaceOnUse">
<stop stop-color="#003F46"/>
<stop offset="1" stop-color="#003F46" stop-opacity="0"/>
</linearGradient>
</defs>
</svg>
