<?xml version="1.0" standalone="no"?>
<!DOCTYPE svg PUBLIC "-//W3C//DTD SVG 20010904//EN"
 "http://www.w3.org/TR/2001/REC-SVG-20010904/DTD/svg10.dtd">
<svg version="1.0" xmlns="http://www.w3.org/2000/svg"
 width="700.000000pt" height="700.000000pt" viewBox="0 0 700.000000 700.000000"
 preserveAspectRatio="xMidYMid meet">
<metadata>
Created by potrace 1.14, written by Peter Selinger 2001-2017
</metadata>
<g transform="translate(0.000000,700.000000) scale(0.100000,-0.100000)"
fill="#000000" stroke="none">
<path d="M4377 5703 c-1 -1 -146 -4 -322 -8 -176 -3 -405 -8 -510 -10 -104 -2
-334 -7 -510 -10 -176 -3 -401 -8 -500 -10 -99 -2 -328 -7 -510 -10 -181 -4
-406 -8 -500 -10 -93 -2 -327 -7 -520 -10 -192 -4 -413 -8 -490 -10 -77 -2
-215 -4 -308 -5 -115 -2 -167 -6 -168 -14 -1 -6 -3 -777 -3 -1713 l-2 -1701
51 -15 c27 -8 120 -35 205 -60 85 -25 243 -71 350 -103 107 -31 254 -73 325
-94 72 -21 333 -98 580 -170 248 -72 518 -151 600 -175 83 -24 191 -55 240
-70 110 -32 296 -87 429 -127 54 -16 106 -31 115 -33 9 -2 77 -22 151 -44 74
-21 223 -65 330 -96 107 -32 224 -66 260 -76 36 -10 151 -43 255 -74 165 -49
607 -178 658 -192 17 -5 17 19 16 491 -1 273 -5 496 -8 497 -3 0 -13 2 -21 4
-49 12 -299 68 -375 85 -49 11 -108 24 -130 30 -22 5 -80 19 -130 29 -49 11
-139 31 -200 45 -236 55 -481 110 -560 126 -27 6 -77 17 -110 25 -102 24 -279
64 -305 69 -26 5 -315 70 -475 107 -49 11 -118 27 -152 35 -35 8 -91 21 -125
29 -74 17 -374 84 -403 89 -32 7 -642 144 -730 165 -44 10 -146 34 -228 52
l-147 32 0 1068 0 1067 78 -3 c42 -2 151 -6 242 -10 91 -3 199 -8 240 -10 41
-3 138 -7 215 -10 331 -13 579 -24 706 -30 53 -3 152 -7 220 -10 254 -10 386
-16 464 -20 81 -4 312 -14 460 -20 140 -5 387 -16 460 -20 39 -2 144 -7 235
-11 91 -3 190 -8 220 -9 185 -9 416 -17 480 -19 l75 -1 0 485 0 485 -108 0
c-60 0 -109 -1 -110 -2z"/>
<path d="M4675 5187 c0 -287 -1 -529 -3 -538 -3 -12 -13 -15 -40 -13 -20 2
-98 6 -172 9 -74 3 -162 8 -195 10 -33 2 -118 7 -190 10 -71 3 -166 8 -210 10
-138 8 -272 15 -590 30 -60 3 -146 8 -190 10 -44 3 -134 8 -200 10 -66 3 -149
7 -185 10 -36 2 -126 7 -200 10 -74 3 -171 8 -215 10 -207 11 -268 15 -380 20
-66 3 -154 7 -195 10 -41 2 -136 7 -210 10 -74 4 -164 8 -200 10 -36 2 -121 6
-190 10 -69 3 -159 8 -200 10 -41 2 -136 7 -210 10 l-135 6 0 -200 c1 -110 3
-202 5 -205 3 -2 52 -7 110 -10 58 -4 123 -9 145 -11 22 -2 76 -7 120 -10 87
-6 157 -12 250 -20 33 -2 96 -7 140 -10 72 -5 131 -10 235 -20 19 -2 78 -6
130 -10 52 -3 115 -8 140 -10 25 -2 79 -7 120 -10 162 -13 197 -15 245 -20 28
-2 91 -7 140 -10 50 -3 110 -8 135 -10 25 -3 83 -7 130 -10 47 -4 96 -8 110
-10 14 -2 68 -7 120 -10 52 -3 115 -8 140 -10 25 -2 79 -7 120 -10 114 -8 210
-16 260 -20 25 -3 81 -7 125 -10 44 -3 100 -8 125 -10 25 -2 86 -6 135 -10 50
-4 106 -8 125 -10 19 -2 73 -6 120 -10 47 -3 105 -8 130 -10 25 -2 81 -6 125
-10 44 -3 100 -8 125 -10 25 -2 88 -7 140 -11 52 -3 102 -8 110 -10 8 -1 24
-3 35 -3 18 -1 20 -8 20 -62 l0 -61 -95 6 c-52 4 -106 8 -120 10 -14 3 -65 7
-115 11 -49 3 -108 8 -130 10 -22 3 -71 7 -110 10 -38 3 -90 8 -115 10 -25 2
-76 7 -115 10 -38 3 -90 8 -115 10 -25 2 -76 7 -115 10 -38 3 -88 8 -110 10
-22 2 -71 7 -110 10 -203 16 -329 27 -345 30 -8 2 -62 6 -120 10 -58 4 -113 9
-123 11 -10 1 -57 6 -105 9 -48 3 -98 8 -112 10 -14 2 -65 6 -115 10 -49 3
-106 8 -125 10 -19 2 -66 7 -105 10 -38 3 -88 7 -110 9 -22 2 -78 7 -125 11
-47 3 -101 8 -120 10 -19 3 -66 7 -105 10 -38 3 -90 7 -115 10 -25 2 -79 7
-120 10 -41 3 -93 8 -115 10 -22 3 -71 7 -108 10 -38 3 -94 8 -125 10 -32 3
-82 7 -112 10 -65 6 -125 11 -240 20 -47 4 -92 8 -100 10 -8 2 -60 6 -115 10
l-100 7 1 -214 c2 -259 1 -245 17 -245 15 -1 108 -11 157 -18 48 -6 119 -15
155 -19 17 -2 53 -7 80 -11 67 -9 75 -10 350 -44 132 -17 256 -32 275 -35 19
-3 78 -10 130 -16 52 -6 106 -13 120 -16 14 -2 50 -6 80 -9 30 -3 69 -7 85
-10 39 -6 88 -13 150 -20 28 -3 65 -8 83 -11 17 -2 47 -6 65 -8 17 -3 59 -8
92 -11 33 -3 71 -8 85 -10 14 -2 43 -7 65 -9 96 -11 151 -19 170 -22 10 -2 78
-11 150 -19 71 -8 146 -17 165 -20 19 -2 57 -7 84 -11 27 -3 56 -7 65 -9 9 -1
45 -6 81 -10 36 -4 72 -8 80 -10 8 -1 42 -6 75 -9 33 -4 71 -9 85 -11 14 -2
68 -9 120 -15 52 -6 109 -13 125 -15 17 -3 140 -18 275 -35 135 -17 256 -33
270 -35 14 -2 50 -7 80 -10 30 -3 66 -8 80 -10 14 -2 48 -6 75 -10 88 -10 130
-17 134 -20 2 -3 4 -22 5 -45 2 -47 14 -45 -141 -25 -65 8 -136 17 -158 20
-22 3 -76 9 -120 15 -44 6 -100 13 -125 15 -25 3 -76 10 -115 15 -38 6 -90 12
-115 15 -25 3 -65 8 -90 10 -25 3 -63 9 -85 12 -22 4 -49 7 -60 8 -19 2 -108
12 -170 20 -16 2 -50 7 -75 10 -108 13 -136 17 -160 20 -43 6 -103 14 -152 20
-26 3 -62 7 -80 10 -27 4 -372 47 -553 70 -101 12 -363 45 -390 49 -36 5 -102
13 -170 21 -27 3 -63 7 -80 10 -16 2 -52 7 -80 10 -27 3 -63 8 -80 10 -16 2
-52 7 -80 10 -27 3 -66 8 -85 11 -19 3 -57 7 -85 10 -27 2 -75 9 -105 14 -30
5 -80 11 -110 15 -30 3 -66 7 -80 9 -14 3 -52 7 -85 11 -33 3 -67 8 -75 10 -8
2 -42 6 -75 10 -33 3 -120 13 -192 23 -89 12 -134 14 -136 7 -1 -5 -3 -109 -2
-230 l0 -219 35 -8 c19 -4 53 -9 75 -12 22 -4 51 -8 65 -11 14 -2 90 -15 170
-29 141 -24 180 -30 258 -41 20 -3 51 -9 67 -12 17 -3 39 -7 50 -8 11 -2 47
-8 80 -14 33 -5 80 -13 105 -16 25 -4 68 -11 95 -16 28 -5 66 -12 85 -15 19
-3 60 -9 90 -14 30 -5 71 -12 90 -15 19 -3 46 -8 60 -10 14 -2 189 -32 390
-65 201 -33 376 -63 389 -65 13 -2 45 -7 70 -11 25 -4 55 -8 66 -10 47 -9 118
-20 184 -30 25 -4 55 -8 66 -11 17 -3 266 -45 350 -59 17 -2 41 -6 55 -9 35
-7 91 -16 120 -20 14 -2 95 -15 180 -29 85 -14 173 -28 195 -31 22 -3 51 -8
65 -11 14 -3 79 -14 145 -25 158 -26 170 -28 235 -39 63 -11 128 -22 150 -25
8 -1 39 -6 68 -10 28 -4 52 -10 53 -14 6 -35 3 -81 -5 -82 -15 -2 -10 -2 -112
15 -49 9 -107 18 -129 21 -22 2 -51 7 -65 10 -13 2 -42 7 -65 10 -22 3 -62 10
-90 15 -27 5 -66 12 -85 14 -19 3 -46 8 -60 11 -25 5 -93 16 -120 20 -8 1 -35
5 -60 9 -25 4 -56 9 -70 11 -14 3 -65 11 -115 20 -49 8 -112 18 -140 21 -27 4
-52 8 -56 10 -4 2 -393 68 -469 79 -14 2 -38 6 -55 9 -16 3 -127 21 -245 41
-118 19 -225 37 -236 39 -12 2 -37 7 -55 10 -160 25 -359 58 -379 61 -303 51
-382 64 -415 69 -23 4 -50 8 -60 10 -11 2 -42 7 -69 10 -27 4 -52 9 -56 11 -3
2 -28 6 -55 9 -51 6 -90 12 -135 21 -28 6 -59 11 -110 19 -19 3 -145 23 -280
46 -135 22 -261 42 -280 45 l-35 6 1 -193 c1 -106 2 -196 3 -199 1 -5 159 -42
178 -41 5 0 15 -4 23 -8 8 -4 33 -11 54 -14 22 -4 161 -34 310 -67 149 -33
282 -63 296 -65 14 -3 33 -7 42 -10 9 -3 27 -7 40 -9 46 -9 611 -134 863 -191
67 -15 419 -92 450 -98 11 -3 152 -34 313 -70 161 -36 303 -68 315 -70 12 -2
85 -19 162 -36 77 -17 149 -33 160 -36 34 -7 206 -44 300 -66 85 -19 101 -22
150 -32 11 -2 43 -10 70 -16 28 -6 57 -13 65 -15 142 -29 306 -69 310 -75 3
-5 5 -250 4 -545 0 -308 4 -539 9 -542 5 -3 20 0 33 6 41 19 64 28 249 100 99
38 198 76 220 85 l40 16 0 462 0 462 95 29 c52 15 118 35 145 44 28 8 57 17
65 19 8 2 136 39 284 84 148 44 273 80 277 80 5 0 9 -191 9 -425 0 -462 -3
-439 56 -411 16 7 108 44 204 81 96 38 177 72 180 76 3 4 5 190 5 413 l0 406
30 9 c74 23 206 62 275 82 41 11 81 23 88 25 9 3 12 329 12 1586 l0 1583 -73
1 c-39 1 -207 5 -372 9 -478 10 -624 14 -895 19 -312 7 -665 16 -820 21 l-116
3 1 -521z m1870 -1175 l0 -819 -190 -43 c-104 -23 -228 -50 -275 -60 -47 -10
-148 -32 -225 -49 -446 -98 -599 -131 -613 -131 -16 0 -17 68 -17 915 0 806 2
915 15 916 8 0 33 2 55 4 22 2 83 6 135 10 52 3 115 7 140 9 25 3 90 7 145 10
55 4 125 8 155 11 80 6 229 17 275 20 159 9 280 18 283 20 1 1 28 3 60 4 l57
2 0 -819z"/>
</g>
</svg>
