<svg viewBox="0 0 283.5 283.5" xmlns="http://www.w3.org/2000/svg" xmlns:xlink="http://www.w3.org/1999/xlink">
    <polygon class="st0" points="211.6,165.9 265.1,154.2 265.1,87.7 211.6,91.5" fill="none" />
    <polygon class="st1" points="20.3,171.2 20.3,84.7 186.1,91.9 186.2,52.4 4.3,56 1.4,56 1.4,194.8 4.3,195.6 186.3,248.8 
		186.2,208.6" fill="#FFFFFF" />
    <path class="st1" d="M281.5,150.6v-64V54.7v-0.2l-75.9-1.7l-16.3-0.5v43.5L22.9,87.4l0,16.5L189.3,117h0v5.1L22.9,107.6l0,18.5
		l166.4,21v0.1h0v3.6l-166.4-21l0,18.7l166.4,27.5v0.1v3.6L22.9,152.2l0,16.1l166.4,36.8v44.6l22.3-8.7v-37.5l36-10.7l-0.6,0.3v34.8
		l18.1-7.1v-33.3l16.4-4.9L281.5,150.6L281.5,150.6z M265.1,154.2l-53.5,11.7V91.5l53.5-3.7V154.2z" fill="#FFFFFF" />
</svg>