<?xml version="1.0" encoding="utf-8"?>
<!-- Generator: Adobe Illustrator 22.0.1, SVG Export Plug-In . SVG Version: 6.00 Build 0)  -->
<svg version="1.1" id="Слой_1" xmlns="http://www.w3.org/2000/svg" xmlns:xlink="http://www.w3.org/1999/xlink" x="0px" y="0px"
	 viewBox="0 0 174.2 49.5" style="enable-background:new 0 0 174.2 49.5;" xml:space="preserve">
<style type="text/css">
	.st0{enable-background:new    ;}
	.st1{fill:#FFD495;}
</style>
<g class="st0">
	<g>
		<polygon class="st1" points="5.9,29.6 5.9,8.6 46.1,10.3 46.1,0.8 2,1.6 1.3,1.6 1.3,35.3 2,35.5 46.1,48.4 46.1,38.6 		"/>
		<path class="st1" d="M69.2,24.6V9V1.3v0L50.8,0.9l-3.9-0.1v10.5L6.5,9.2l0,4l40.3,3.2h0v1.2L6.5,14.1l0,4.5l40.3,5.1v0h0v0.9
			L6.5,19.5l0,4.5l40.3,6.7v0v0.9L6.5,24.9l0,3.9l40.3,8.9v10.8l5.4-2.1v-9.1l8.7-2.6l-0.2,0.1v8.4l4.4-1.7v-8.1l4-1.2L69.2,24.6
			L69.2,24.6z M65.2,25.4l-13,2.8v-18l13-0.9V25.4z"/>
	</g>
	<g>
		<path class="st1" d="M76.7,11.3V4.2c0-1.1,0.3-1.9,0.8-2.5s1.3-0.9,2.4-0.9c1.1,0,1.9,0.3,2.4,0.9s0.9,1.4,0.9,2.5v1.3H81V4.1
			c0-0.9-0.4-1.3-1.1-1.3c-0.7,0-1.1,0.4-1.1,1.3v7.4c0,0.9,0.4,1.3,1.1,1.3c0.7,0,1.1-0.4,1.1-1.3v-2h2.1v1.8
			c0,1.1-0.3,1.9-0.9,2.5s-1.4,0.9-2.4,0.9c-1.1,0-1.8-0.3-2.4-0.9S76.7,12.4,76.7,11.3z"/>
		<path class="st1" d="M84.7,11.3V4.2c0-1.1,0.3-1.9,0.8-2.5c0.6-0.6,1.4-0.9,2.4-0.9s1.9,0.3,2.4,0.9c0.6,0.6,0.8,1.4,0.8,2.5v7.1
			c0,1.1-0.3,1.9-0.8,2.5c-0.6,0.6-1.4,0.9-2.4,0.9s-1.9-0.3-2.4-0.9C85,13.2,84.7,12.4,84.7,11.3z M86.8,11.4
			c0,0.9,0.4,1.4,1.1,1.4c0.7,0,1.1-0.5,1.1-1.4V4.1c0-0.9-0.4-1.3-1.1-1.3c-0.7,0-1.1,0.4-1.1,1.3V11.4z"/>
		<path class="st1" d="M93.1,14.6V0.9h3l1.6,9.7l1.5-9.7h3.1v13.6H100V4.8l-1.5,9.8h-2l-1.6-9.6v9.6H93.1z"/>
		<path class="st1" d="M104.1,14.6V0.9h3l1.6,9.7l1.5-9.7h3.1v13.6h-2.1V4.8l-1.5,9.8h-2l-1.6-9.6v9.6H104.1z"/>
		<path class="st1" d="M115.1,14.6V0.9h5.8v2h-3.7v3.8h2.9v1.9h-2.9v4h3.7v2H115.1z"/>
		<path class="st1" d="M122.8,14.6V0.9h3.2c1.1,0,1.9,0.3,2.4,0.8s0.8,1.3,0.8,2.4v1.1c0,1.4-0.5,2.3-1.4,2.8c0.5,0.2,0.9,0.6,1.1,1
			c0.2,0.5,0.3,1.1,0.3,1.9v2.1c0,0.8,0.1,1.3,0.2,1.7h-2.1c-0.1-0.2-0.1-0.3-0.1-0.4c0-0.1,0-0.2-0.1-0.5c0-0.2,0-0.5,0-0.9v-2.1
			c0-0.6-0.1-1.1-0.3-1.3c-0.2-0.3-0.6-0.4-1.1-0.4h-0.7v5.6H122.8z M124.9,7.1h0.8c0.4,0,0.7-0.1,1-0.3c0.2-0.2,0.3-0.6,0.3-1.1
			V4.3c0-0.5-0.1-0.8-0.3-1.1s-0.4-0.3-0.8-0.3h-1V7.1z"/>
		<path class="st1" d="M130.9,11.3V4.2c0-1.1,0.3-1.9,0.8-2.5c0.5-0.6,1.3-0.9,2.4-0.9c1.1,0,1.9,0.3,2.4,0.9
			c0.6,0.6,0.9,1.4,0.9,2.5v1.3h-2.1V4.1c0-0.9-0.4-1.3-1.1-1.3c-0.7,0-1.1,0.4-1.1,1.3v7.4c0,0.9,0.4,1.3,1.1,1.3
			c0.7,0,1.1-0.4,1.1-1.3v-2h2.1v1.8c0,1.1-0.3,1.9-0.9,2.5c-0.6,0.6-1.4,0.9-2.4,0.9c-1.1,0-1.8-0.3-2.4-0.9
			C131.2,13.2,130.9,12.4,130.9,11.3z"/>
		<path class="st1" d="M142.6,14.6V0.9h3.2c1.1,0,1.9,0.3,2.4,0.8S149,3,149,4.1v1.1c0,1.4-0.5,2.3-1.4,2.8c0.5,0.2,0.9,0.6,1.1,1
			c0.2,0.5,0.3,1.1,0.3,1.9v2.1c0,0.8,0.1,1.3,0.2,1.7h-2.1c-0.1-0.2-0.1-0.3-0.1-0.4c0-0.1,0-0.2-0.1-0.5c0-0.2,0-0.5,0-0.9v-2.1
			c0-0.6-0.1-1.1-0.3-1.3C146.3,9.1,146,9,145.5,9h-0.7v5.6H142.6z M144.7,7.1h0.8c0.4,0,0.7-0.1,1-0.3c0.2-0.2,0.3-0.6,0.3-1.1V4.3
			c0-0.5-0.1-0.8-0.3-1.1c-0.2-0.2-0.4-0.3-0.8-0.3h-1V7.1z"/>
		<path class="st1" d="M150.9,14.6V0.9h5.8v2h-3.7v3.8h2.9v1.9h-2.9v4h3.7v2H150.9z"/>
		<path class="st1" d="M158,14.6l2.2-13.6h3.3l2.2,13.6h-2.1l-0.4-2.5h-2.6l-0.4,2.5H158z M160.8,10.2h2.1l-1-6.9L160.8,10.2z"/>
		<path class="st1" d="M167,14.6V0.9h2.1v11.7h3.5v2H167z"/>
	</g>
	<path class="st1" d="M76.7,32.4v-8.5h2c0.7,0,1.2,0.2,1.5,0.5c0.3,0.3,0.5,0.8,0.5,1.5v0.3c0,0.9-0.3,1.4-0.9,1.7
		c0.7,0.3,1,0.9,1,1.8v0.7c0,0.7-0.2,1.2-0.5,1.5c-0.3,0.3-0.8,0.5-1.5,0.5H76.7z M78,27.4h0.5c0.3,0,0.5-0.1,0.6-0.2
		c0.1-0.1,0.2-0.4,0.2-0.7V26c0-0.3-0.1-0.5-0.2-0.7c-0.1-0.1-0.3-0.2-0.5-0.2H78V27.4z M78,31.2h0.8c0.2,0,0.4-0.1,0.5-0.2
		c0.1-0.1,0.2-0.3,0.2-0.6v-0.7c0-0.4-0.1-0.7-0.2-0.8c-0.1-0.2-0.4-0.2-0.7-0.2H78V31.2z"/>
	<path class="st1" d="M83.5,32.4v-8.5H87v1.2h-2.2v7.3H83.5z"/>
	<path class="st1" d="M87.9,32.4v-1.2h1.3v1.2H87.9z"/>
	<path class="st1" d="M93.1,32.4V20.2H95v5.3l2.5-5.3h1.9l-2.7,5.5l2.7,6.8h-2l-1.9-4.9L95,28.6v3.8H93.1z"/>
	<path class="st1" d="M99.8,32.4l1.9-12.2h3l1.9,12.2h-1.9l-0.3-2.2h-2.4l-0.3,2.2H99.8z M102.3,28.5h1.9l-0.9-6.2L102.3,28.5z"/>
	<path class="st1" d="M106.9,32.4v-1.8c0.2,0,0.4,0,0.5,0c0.1,0,0.2-0.1,0.3-0.2c0.1-0.1,0.2-0.2,0.2-0.4c0-0.2,0.1-0.4,0.1-0.7
		l0.2-9.3h5.5v12.2h-1.9V21.9h-1.7l-0.2,7.4c0,1.1-0.3,1.9-0.7,2.4c-0.4,0.5-1.1,0.7-2.1,0.7H106.9z"/>
	<path class="st1" d="M115.3,32.4V20.2h1.7v7.8l0.7-2.7l1.6-5.1h2.3v12.2h-1.9v-8.6l-0.8,3l-1.6,5.6H115.3z"/>
	<path class="st1" d="M122.8,32.4V20.2h1.9v5.3h2.2v-5.3h1.9v12.2h-1.9v-5.2h-2.2v5.2H122.8z"/>
	<path class="st1" d="M130.2,32.4V20.2h1.7v7.8l0.7-2.7l1.6-5.1h2.3v12.2h-1.9v-8.6l-0.8,3l-1.6,5.6H130.2z"/>
	<path class="st1" d="M137.7,32.4V20.2h1.9v5.3h2.2v-5.3h1.9v12.2h-1.9v-5.2h-2.2v5.2H137.7z"/>
	<path class="st1" d="M145.2,32.4V20.2h5.1v1.8h-3.2v10.5H145.2z"/>
	<path class="st1" d="M151.5,32.4V20.2h2.8c0.9,0,1.7,0.3,2.1,0.8c0.5,0.5,0.7,1.3,0.7,2.3v1.6c0,1-0.2,1.7-0.7,2.3
		c-0.5,0.5-1.2,0.8-2.1,0.8h-0.9v4.6H151.5z M153.4,26.1h0.9c0.3,0,0.6-0.1,0.7-0.3c0.2-0.2,0.2-0.5,0.2-0.9v-1.8
		c0-0.4-0.1-0.7-0.2-0.9c-0.2-0.2-0.4-0.3-0.7-0.3h-0.9V26.1z"/>
	<path class="st1" d="M157.6,32.4l1.9-12.2h3l1.9,12.2h-1.9l-0.3-2.2h-2.4l-0.3,2.2H157.6z M160.1,28.5h1.9l-0.9-6.2L160.1,28.5z"/>
	<path class="st1" d="M164.8,34v-3.4h0.8c0.2-0.2,0.3-0.4,0.4-0.7c0.1-0.2,0.1-0.5,0.1-0.9l0.3-8.9h5.5v10.5h0.8V34h-1.9v-1.6h-4.1
		V34H164.8z M167.4,30.7h2.5v-8.8h-1.6l-0.3,7.1c0,0.4-0.1,0.8-0.2,1C167.7,30.3,167.6,30.5,167.4,30.7z"/>
</g>
</svg>
