<svg width="1152" height="1093" viewBox="0 0 1152 1093" fill="none" xmlns="http://www.w3.org/2000/svg">
<path d="M980.852 865.384C982.269 867.048 980.28 871.639 979.468 874.089C978.656 876.539 978.983 878.381 977.069 877.865C975.155 877.349 974.455 879.109 972.607 880.373C970.759 881.636 970.599 882.755 969.816 885.543C969.034 888.33 966.054 886.29 963.032 883.743C960.01 881.196 959.733 883.94 959.64 886.839C959.547 889.738 958.067 888.334 956.022 889.274C953.976 890.214 952.371 889.332 950.997 888.174C949.623 887.016 946.662 887.185 944.873 886.148C943.123 885.133 942.055 885.443 940.456 885.909L940.35 885.94C938.69 886.422 937.229 887.227 935.855 886.07C934.481 884.912 930.599 885.244 929.842 883.354C929.086 881.463 927.31 883.57 925.766 885.403C924.222 887.235 919.776 886.936 917.712 885.667C915.649 884.399 911.226 885.372 909.682 887.205C908.137 889.038 907.448 888.926 904.641 888.912C901.834 888.897 902.854 892.89 900.66 893.078C898.466 893.266 897.959 893.31 897.837 895.871C897.715 898.432 895.868 899.695 894.363 899.994C892.858 900.293 892.592 901.166 891.588 902.357C890.585 903.548 890.811 904.209 892.416 905.092C894.022 905.975 893.066 906.736 892.246 908.082C891.425 909.428 891.039 909.886 888.507 910.103C885.975 910.319 887.107 913.623 887.107 913.623L887.136 921.953L882.239 925.347C882.239 925.347 880.656 928.714 879.266 930.363C877.876 932.012 875.426 931.202 872.596 929.914C869.766 928.626 867.715 930.502 865.785 932.792C863.855 935.083 861.068 934.301 859.491 933.756C857.914 933.211 855.305 933.52 854.378 934.619C853.452 935.719 850.645 935.704 848.562 935.202C846.479 934.7 846.222 936.678 845.725 937.825C845.227 938.973 845.598 941.322 846.585 942.938C847.573 944.554 846.072 946.893 845.787 948.533C845.501 950.172 844.53 953.741 844.53 953.741C844.53 953.741 831.484 955.283 828.219 954.883C824.954 954.482 823.712 959.86 823.884 961.885C824.057 963.911 822.032 972.076 821.057 973.605C820.082 975.134 811.285 984.644 810.127 986.018C808.969 987.393 803.321 995.953 803.321 995.953L803.717 996.599C802.458 996.792 800.851 998.885 800.416 999.773C799.919 1000.92 798.861 1003.48 798.861 1003.48C798.861 1003.48 797.847 1006.54 796.313 1006.5C794.78 1006.46 793.294 1005.99 793.768 1003.57C794.242 1001.15 791.551 1002.49 791.236 1003.79C790.922 1005.09 790.84 1006.12 789.306 1006.08C787.85 1005.95 788.042 1007.21 788.412 1009.56C788.859 1011.81 790.316 1011.94 791.961 1011.29C793.605 1010.64 794.047 1013.84 794.466 1015.76C794.793 1017.6 794.367 1019.59 794.367 1019.59C794.367 1019.59 795.152 1021.82 794.838 1023.12C794.524 1024.42 796.273 1026.99 797.078 1028.45C797.791 1029.84 795.832 1031.79 795.363 1033.28C794.895 1034.76 795.53 1036.24 796.678 1036.74C797.121 1036.95 797.628 1036.91 798.197 1036.61L794.852 1042.25L796.905 1053.38L795.372 1053.34L790.174 1050.22C790.174 1050.22 778.981 1041.57 776.691 1039.64C774.401 1037.71 768.823 1034.1 765.916 1032.91C763.009 1031.71 754.177 1025.84 750.513 1022.75C746.85 1019.66 735.679 1012.29 731.904 1009.89C728.13 1007.49 715.9 997.656 714.801 996.73C713.702 995.803 695.021 982.099 695.021 982.099L684.357 974.68C684.357 974.68 677.695 970.319 675.68 968.622C673.665 966.924 670.531 965.066 668.11 964.594C665.69 964.121 652.939 954.16 652.939 954.16L645.026 943.104L607.317 917.596L587.88 902.001L575.516 891.582L534.66 861.072L508.53 843.754L479.179 818.551L473.006 816.954L471.07 812.188L464.384 806.554C462.552 805.011 454.294 800.872 450.316 799.087C446.338 797.302 443.8 790.462 442.211 786.773C440.621 783.083 434.874 779.494 434.007 778.293C433.14 777.092 427.684 770.927 426.768 770.156C425.852 769.384 423.065 768.602 420.935 765.554C418.805 762.505 417.513 760.32 415.538 757.089C413.562 753.857 404.989 751.02 404.989 751.02C404.989 751.02 401.099 747.272 400.569 746.042C400.04 744.812 396.464 739.762 394.492 738.571C392.429 737.302 387.172 728.485 387.172 728.485C387.172 728.485 384.077 725.094 382.246 723.551C380.414 722.007 375.078 716.257 373.633 714.256C372.187 712.254 354.212 695.854 354.212 695.854L349.659 687.316C349.659 687.316 333.487 672.122 332.113 670.964C330.74 669.807 303.534 644.845 303.534 644.845L293.139 630.601L282.606 621.726L267.919 606.999L260.373 604.244L257.967 595.948L195.893 525.935L177.916 504.519L129.371 450.607L82.1514 398.281L84.2595 397.081L88.9913 395.74L98.392 393.32L108.292 394.768L117.357 397.393L124.869 400.746L130.255 403.09L138.607 404.331L145.225 403.169L153.623 398.964L162.582 393.351L166.288 388.953L168.015 387.275L175.232 383.171L180.384 380.775L183.789 380.823L184.261 381.378L185.678 383.042L187.205 386.992L190.149 392.607L190.056 395.505L187.071 402.392L188.555 405.836L190.97 407.245L200.273 408.659L210.009 409.186L220.509 407.692L228.944 407.905L234.812 408.933L249.278 414.071L260.074 417.057L262.692 417.853L269.868 418.259L278.757 416.818L290.309 413.704L295.257 414.896L295.497 415.725L293.799 417.741L293.156 420.177L294.341 422.116L305.132 426.038L321.898 423.242L321.734 422.321L316.142 418.549L312.965 416.185L312.44 414.02L313.295 412.076L316.227 411.57L315.886 409.559L314.18 407.494L310.781 406.51L303.789 403.283L299.831 400.731L297.967 396.81L296.232 394.407L292.77 393.684L292.68 390.631L288.253 389.564L285.684 388.339L285.021 383.55L280.696 380.689L277.731 378.817L276.546 376.878L274.001 373.951L273.346 373.242L270.063 370.632L263.147 370.289L257.702 370.245L253.773 368.031L253.59 367.876L252.592 368.132L251.593 368.387L242.024 370.822L236.27 371.144L233.208 370.131L231.444 367.391L231.466 363.649L232.622 357.258L235.089 352.286L243.234 344.107L247.116 335.783L245.991 328.568L243.967 325.765L243.784 325.611L235.825 320.001L235.55 319.769L223.125 322.618L216.133 322.367L211.193 325.255L204.22 332.229L197.127 338.787L196.572 339.26L195.274 340.986L195.404 342.506L197.418 344.203L198.103 345.25L197.634 346.736L195.806 347.232L193.892 346.716L189.661 348.948L187.4 347.357L182.411 342.683L180.089 338.375L180.169 332.332L180.18 330.461L182.376 327.297L186.298 325.431L193.465 324.732L204.695 318.84L213.918 315.33L222.13 308.93L232.284 303.385L242.875 293.976L249.428 288.059L255.324 281.433L262.544 263.386L267.139 256.446L268.595 248.585L270.241 244.958L279.327 235.848L284.032 231.195L295.37 222.572L299.615 220.508L307.188 218.585L312.422 215.161L318.828 213.507L320.591 216.247L320.976 218.765L321.894 224.552L323.18 227.673L329.648 233.751L330.198 234.214L342.198 241.348L348.897 250.127L355.13 254.44L372.855 260.914L374.69 264.498L383.088 271.261L386.352 271.661L388.069 271.854L390.591 273.509L390.332 278.462L391.25 284.25L393.456 290.182L398.111 296.926L410.38 305.227L430.906 312.652L434.234 312.792L437.976 312.812L455.139 315.679L469.456 317.089L472.143 316.689L473.985 316.361L476.343 317.094L489.384 316.488L493.782 317.217L502.94 316.943L503.953 316.856L536.841 313.701L572.592 303.243L589.603 300.342L620.811 290.443L640.365 285.454L651.854 282.6L667.082 277.725L671.631 276.23L672.152 276.356L678.464 285.593L680.242 288.501C679.596 288.897 679.041 289.369 678.578 289.919L678.077 289.027L676.329 291.472C676.175 291.655 675.929 291.761 675.76 291.776L672.23 292.248C672.138 292.171 672.061 292.262 671.969 292.185L665.382 290.709L661.096 289.29L659.837 289.483L658.79 290.168L656.966 292.704C656.889 292.796 656.72 292.81 656.643 292.902L654.428 293.857C654.351 293.948 654.182 293.963 654.014 293.977L650.32 293.528L643.057 292.11L641.982 292.457L637.611 295.041C637.365 295.148 637.196 295.162 636.936 295.099L633.43 293.869L628.244 296.864L623.443 302.376L623.289 302.559L620.239 304.69L620.162 304.782L615.671 306.952C615.594 307.044 615.594 307.044 615.425 307.058L606.831 307.964L605.601 308.494L603.8 312.304L603.491 312.671L601.397 314.04C601.32 314.132 601.32 314.132 601.151 314.146L597.374 314.725L597.206 314.739L577.183 313.223L565.381 314.403L553.892 317.257L545.103 319.88L544.935 319.894L540.454 320.193L531.786 323.23L531.617 323.245L523.361 324.122C523.361 324.122 523.283 324.213 523.192 324.136L516.542 322.92L512.78 323.667L510.614 324.193C510.537 324.284 510.368 324.299 510.277 324.222L505.604 323.261L498.895 324.346L493.231 327.721L492.725 327.765L487.314 327.123C487.145 327.137 487.145 327.137 487.054 327.06L483.076 325.275L474.573 326.258L467.343 327.217C467.252 327.14 467.175 327.231 467.083 327.154L462.15 326.131L458.914 326.068L454.326 329.096C454.249 329.188 454.08 329.203 453.911 329.217L452.455 329.087L451.39 335.554C451.482 335.631 451.405 335.723 451.405 335.723L450.299 338.708L450.797 345.552L452.214 347.216L455.078 347.906L459.716 349.465L463.242 349.928C463.41 349.914 463.502 349.991 463.685 350.145L467.175 354.182L474.092 359.542L474.275 359.696L481.373 371.161L484.968 375.444L488.285 377.456L506.931 383.766L507.298 384.075L509.124 386.554L514.771 396.954C514.862 397.031 514.877 397.199 514.891 397.368L513.364 412.377L513.115 418.435L517.75 425.945L520.788 425.685C521.034 425.579 521.218 425.733 521.401 425.888L523.459 428.092C523.55 428.169 523.656 428.415 523.671 428.584L523.646 430.286L525.646 431.816L525.829 431.97L527.078 433.648L531.522 436.924C531.614 437.001 531.797 437.155 531.812 437.324L532.514 440.58L678.221 387.552L678.607 387.094L680.855 385.541L685.734 379.937L686.537 376.382L687.411 373.672L687.566 373.489L690.659 368.888L692.34 364.663L692.417 364.571L694.29 361.605C694.276 361.437 694.444 361.422 694.522 361.331L698.598 359.281L699.104 359.238L706.535 360.642L711.025 361.448C711.194 361.434 711.377 361.588 711.483 361.834L713.198 365.003C713.304 365.249 713.333 365.587 713.101 365.861L711.725 367.68L710.562 369.99L713.426 370.68L713.793 370.988L715.725 373.714L718.546 373.897C718.623 373.806 718.715 373.883 718.715 373.883L724.029 375.383L728.362 371.356L732.781 368.343L736.207 364.649L736.561 361.813L736.528 359.435L736.138 357.853L736.139 357.852C736.539 357.563 736.939 357.274 737.248 356.908L738.072 357.602C739.08 358.451 745.223 359.711 746.525 360.024C747.827 360.338 752.024 358.703 753.529 358.405C755.033 358.106 762.181 358.174 763.685 357.875C765.099 357.499 773.48 359.077 775.514 360.008C777.457 360.862 782.96 361.581 782.96 361.581L782.187 373.465C782.187 373.465 779.996 383.685 779.725 385.494C779.531 387.211 777.585 392.308 776.316 394.372C774.955 396.359 773.028 400.69 772.858 403.68C772.687 406.671 774.963 416.423 774.875 418.386C774.787 420.349 774.528 428.278 774.328 430.931C774.038 433.506 775.228 434.51 776.733 434.211C778.238 433.912 782.876 435.47 787.878 435.297C792.802 435.216 794.962 443.618 795.293 447.5C795.624 451.383 800.681 454.861 800.681 454.861C800.681 454.861 805.316 462.371 806.304 463.987C807.292 465.602 807.599 468.212 807.511 470.175C807.501 472.046 810.346 481.495 810.493 485.223C810.641 488.951 812.036 494.358 810.535 496.697C809.034 499.036 807.264 500.208 808.824 503.56C810.462 506.82 814.437 514.557 815.241 516.018C816.046 517.48 817.646 519.298 819.71 520.567C821.773 521.836 825.447 523.052 825.237 527.576C825.028 532.1 825.861 541.89 827.032 543.661C828.203 545.431 830.912 549.28 831.585 552.198C832.259 555.116 836.205 562.515 837.496 564.7C838.787 566.885 840.714 570.546 841.977 572.393L841.986 572.406C843.247 574.252 844.995 576.81 847.907 576.136C850.825 575.461 854.77 574.869 857.793 577.415C860.059 578.072 863.602 580.744 864.308 586.04C865.014 591.336 862.351 593.009 859.708 593.915C857.065 594.822 852.177 599.321 851.489 604.226C850.802 609.131 851.58 615.271 853.782 619.163C855.984 623.056 861.436 627.18 864.315 628.039C867.193 628.898 871.307 628.29 873.575 625.971C875.843 623.651 883.455 620.194 888.453 625.972C893.451 631.751 895.057 632.634 897.66 633.261C900.264 633.888 903.813 635.625 906.377 637.786C908.942 639.947 917.885 645.133 919.259 646.29C920.633 647.448 924.34 651.042 927.005 654.384C929.67 657.727 935.045 661.943 935.921 664.248C936.798 666.554 941.106 672.221 943.121 673.919C945.136 675.617 950.001 677.836 950.819 682.442C951.636 687.048 955.862 693.743 960.226 695.07C964.589 696.397 977.027 696.692 979.428 697.932C981.829 699.172 988.579 701.57 989.833 702.313C991.086 703.056 994.34 705.328 994.34 705.328L981.691 731.491L976.822 746.191C976.822 746.191 977.495 749.109 977.639 750.797C977.783 752.485 976.14 758.152 974.75 759.802C973.36 761.451 976.263 763.583 977.757 765.156C979.251 766.728 980.521 764.664 980.691 761.674C980.861 758.683 983.167 757.806 986.046 758.665C988.924 759.524 988 765.639 986.653 767.795C985.307 769.951 986.864 771.263 989.13 771.919C991.396 772.575 990.199 775.483 990.752 777.986L990.81 778.246C991.326 780.568 991.57 781.662 989.335 784.314C987.019 787.063 987.376 786.267 987.163 788.751C986.949 791.235 987.231 795.547 988.797 797.963C990.364 800.38 989.177 801.416 986.481 800.712C983.786 800.008 982.13 802.53 981.584 804.107C981.038 805.684 982.985 808.578 984.447 807.773C985.909 806.967 987.597 806.823 989.245 808.212C990.894 809.601 990.894 809.601 990.348 811.178C989.802 812.756 987.635 816.257 986.858 818.109C986.08 819.961 988.717 822.966 991.938 822.86C995.16 822.754 996.406 827.409 996.406 827.409C996.406 827.409 995.04 830.331 996.148 832.362C997.256 834.392 997.208 834.822 996.396 837.272C995.585 839.722 994.195 841.371 992.006 840.623C989.817 839.875 985.956 844.457 984.952 845.648C983.949 846.839 985.152 850.987 986.212 853.447C987.271 855.907 984.723 858.931 982.109 860.175C979.494 861.419 979.435 863.719 980.852 865.384Z" fill="url(#paint0_linear)" fill-opacity="0.440044"/>
<path d="M55.5287 365.193L53.6038 366.548L52.1953 357.996L54.3753 357.64L54.3897 357.808L59.2078 357.481L75.1576 355.095L79.0976 355.438L87.9866 353.997L99.8187 350.178L107.338 349.62L128.202 346.048L138.158 343.155L158.333 339.473L174.498 331.627L175.425 338.52L171.875 339.759L169.11 343.226L167.286 345.763L164.411 346.944L158.22 343.138L151.312 346.875L146.148 346.127L139.977 349.546L122.735 352.723L118.337 351.994L113.605 353.334L107.773 356.724L103.267 358.725L87.2006 362.736L82.7255 362.099L68.1116 364.2L64.5487 362.295L58.4234 363.244L56.0207 364.98L55.5287 365.193Z" fill="url(#paint1_linear)" fill-opacity="0.440044"/>
<mask id="path-2-inside-1" fill="white">
<path d="M980.852 865.384C982.269 867.048 980.279 871.639 979.468 874.089C978.656 876.539 978.983 878.381 977.069 877.865C975.155 877.349 974.454 879.109 972.607 880.373C970.759 881.636 970.599 882.755 969.816 885.543C969.034 888.33 966.054 886.29 963.032 883.743C960.009 881.196 959.733 883.94 959.64 886.839C959.547 889.738 958.067 888.334 956.022 889.274C953.976 890.215 952.371 889.332 950.997 888.174C949.623 887.016 946.662 887.185 944.873 886.148C943.123 885.133 942.055 885.443 940.455 885.909L940.35 885.94C938.69 886.422 937.229 887.227 935.855 886.07C934.481 884.912 930.599 885.244 929.842 883.354C929.086 881.463 927.31 883.57 925.766 885.403C924.222 887.235 919.776 886.936 917.712 885.667C915.649 884.399 911.226 885.372 909.682 887.205C908.137 889.038 907.448 888.926 904.641 888.912C901.834 888.897 902.854 892.891 900.66 893.078C898.466 893.266 897.959 893.31 897.837 895.871C897.715 898.432 895.868 899.695 894.363 899.994C892.858 900.293 892.592 901.166 891.588 902.357C890.585 903.548 890.811 904.209 892.416 905.092C894.022 905.975 893.067 906.736 892.246 908.082C891.425 909.428 891.039 909.886 888.507 910.103C885.975 910.319 887.107 913.623 887.107 913.623L887.136 921.953L882.239 925.347C882.239 925.347 880.656 928.714 879.266 930.363C877.876 932.012 875.427 931.202 872.596 929.914C869.766 928.626 867.715 930.502 865.785 932.792C863.855 935.083 861.068 934.301 859.491 933.756C857.914 933.211 855.305 933.52 854.378 934.619C853.452 935.719 850.645 935.704 848.562 935.202C846.479 934.7 846.222 936.678 845.725 937.825C845.227 938.973 845.598 941.322 846.585 942.938C847.573 944.554 846.072 946.893 845.787 948.533C845.501 950.172 844.53 953.741 844.53 953.741C844.53 953.741 831.484 955.283 828.219 954.883C824.954 954.482 823.712 959.86 823.884 961.885C824.057 963.911 822.032 972.076 821.057 973.605C820.082 975.134 811.285 984.644 810.127 986.018C808.969 987.393 803.321 995.953 803.321 995.953L803.717 996.599C802.458 996.792 800.851 998.885 800.416 999.773C799.919 1000.92 798.861 1003.48 798.861 1003.48C798.861 1003.48 797.847 1006.54 796.313 1006.5C794.78 1006.46 793.294 1005.99 793.768 1003.57C794.242 1001.15 791.551 1002.49 791.236 1003.79C790.922 1005.09 790.84 1006.12 789.306 1006.08C787.85 1005.95 788.042 1007.21 788.412 1009.56C788.859 1011.81 790.316 1011.94 791.961 1011.29C793.605 1010.64 794.047 1013.84 794.466 1015.76C794.793 1017.6 794.367 1019.59 794.367 1019.59C794.367 1019.59 795.152 1021.82 794.838 1023.12C794.524 1024.42 796.273 1026.99 797.078 1028.45C797.791 1029.84 795.832 1031.79 795.363 1033.28C794.895 1034.76 795.53 1036.24 796.678 1036.74C797.121 1036.95 797.628 1036.91 798.197 1036.61L794.852 1042.25L796.905 1053.38L795.372 1053.34L790.174 1050.22C790.174 1050.22 778.981 1041.57 776.691 1039.64C774.401 1037.71 768.824 1034.1 765.916 1032.91C763.009 1031.71 754.177 1025.84 750.513 1022.75C746.85 1019.66 735.679 1012.29 731.904 1009.89C728.13 1007.49 715.9 997.656 714.801 996.73C713.702 995.803 695.021 982.099 695.021 982.099L684.357 974.68C684.357 974.68 677.695 970.319 675.68 968.622C673.665 966.924 670.531 965.066 668.11 964.594C665.69 964.121 652.939 954.16 652.939 954.16L645.026 943.104L607.317 917.596L587.88 902.001L575.516 891.582L534.66 861.072L508.53 843.754L479.179 818.551L473.006 816.954L471.07 812.188L464.384 806.554C462.552 805.011 454.294 800.872 450.316 799.087C446.338 797.302 443.8 790.462 442.211 786.773C440.621 783.083 434.874 779.494 434.007 778.293C433.14 777.092 427.684 770.927 426.768 770.156C425.852 769.384 423.065 768.602 420.935 765.554C418.805 762.505 417.513 760.32 415.538 757.089C413.562 753.857 404.989 751.02 404.989 751.02C404.989 751.02 401.099 747.272 400.569 746.042C400.04 744.812 396.464 739.762 394.492 738.571C392.429 737.302 387.172 728.485 387.172 728.485C387.172 728.485 384.077 725.094 382.246 723.551C380.414 722.007 375.078 716.257 373.633 714.256C372.187 712.254 354.212 695.854 354.212 695.854L349.659 687.316C349.659 687.316 333.487 672.122 332.113 670.964C330.74 669.807 303.534 644.845 303.534 644.845L293.139 630.601L282.606 621.726L267.919 606.999L260.373 604.244L257.967 595.948L195.893 525.935L177.916 504.519L129.371 450.607L82.1514 398.281L84.2595 397.081L88.9913 395.74L98.392 393.32L108.292 394.768L117.357 397.393L124.869 400.746L130.255 403.09L138.607 404.331L145.225 403.169L153.623 398.964L162.582 393.351L166.288 388.953L168.015 387.275L175.232 383.171L180.384 380.775L183.789 380.823L184.261 381.378L185.678 383.042L187.205 386.992L190.149 392.607L190.056 395.505L187.071 402.392L188.555 405.836L190.97 407.245L200.273 408.659L210.009 409.186L220.509 407.692L228.944 407.905L234.812 408.933L249.278 414.071L260.074 417.057L262.692 417.853L269.868 418.259L278.757 416.818L290.309 413.704L295.257 414.896L295.497 415.725L293.799 417.741L293.156 420.177L294.341 422.116L305.132 426.038L321.898 423.242L321.734 422.321L316.142 418.549L312.965 416.185L312.44 414.02L313.295 412.076L316.227 411.57L315.886 409.559L314.18 407.494L310.781 406.51L303.789 403.283L299.831 400.731L297.967 396.81L296.232 394.407L292.77 393.684L292.68 390.631L288.253 389.564L285.684 388.339L285.021 383.55L280.696 380.689L277.731 378.817L276.546 376.878L274.001 373.951L273.346 373.242L270.063 370.632L263.147 370.289L257.702 370.245L253.773 368.031L253.59 367.876L252.592 368.132L251.593 368.387L242.024 370.822L236.27 371.144L233.208 370.131L231.444 367.391L231.466 363.649L232.622 357.258L235.089 352.286L243.234 344.107L247.116 335.783L245.991 328.568L243.967 325.765L243.784 325.611L235.825 320.001L235.55 319.769L223.125 322.618L216.133 322.367L211.193 325.255L204.22 332.229L197.127 338.787L196.572 339.26L195.274 340.986L195.404 342.506L197.418 344.203L198.103 345.25L197.634 346.736L195.806 347.232L193.892 346.716L189.661 348.948L187.4 347.357L182.411 342.683L180.089 338.375L180.169 332.332L180.18 330.461L182.376 327.297L186.298 325.431L193.465 324.732L204.695 318.84L213.918 315.33L222.13 308.93L232.284 303.385L242.875 293.976L249.428 288.059L255.324 281.433L262.544 263.386L267.139 256.446L268.595 248.585L270.241 244.958L279.327 235.848L284.032 231.195L295.37 222.572L299.615 220.508L307.188 218.585L312.422 215.161L318.828 213.507L320.591 216.247L320.976 218.765L321.894 224.552L323.18 227.673L329.648 233.751L330.198 234.214L342.198 241.348L348.897 250.127L355.13 254.44L372.855 260.914L374.69 264.498L383.088 271.261L386.352 271.661L388.069 271.854L390.591 273.509L390.332 278.462L391.25 284.25L393.456 290.182L398.111 296.926L410.38 305.227L430.906 312.652L434.234 312.792L437.976 312.812L455.139 315.679L469.456 317.089L472.143 316.689L473.985 316.361L476.343 317.094L489.384 316.488L493.782 317.217L502.94 316.943L503.953 316.856L536.841 313.701L572.592 303.243L589.603 300.342L620.811 290.443L640.365 285.454L651.854 282.6L667.082 277.725L671.631 276.23L672.152 276.356L678.464 285.593L680.242 288.501C679.596 288.897 679.041 289.369 678.578 289.919L678.077 289.027L676.329 291.472C676.175 291.655 675.929 291.761 675.76 291.776L672.23 292.248C672.138 292.171 672.061 292.262 671.969 292.185L665.382 290.709L661.096 289.29L659.837 289.483L658.79 290.168L656.966 292.704C656.889 292.796 656.72 292.81 656.643 292.902L654.428 293.857C654.351 293.948 654.182 293.963 654.014 293.977L650.32 293.528L643.057 292.11L641.982 292.457L637.611 295.041C637.365 295.148 637.196 295.162 636.936 295.099L633.43 293.869L628.244 296.864L623.443 302.376L623.289 302.559L620.239 304.69L620.162 304.782L615.671 306.952C615.594 307.044 615.594 307.044 615.425 307.058L606.831 307.964L605.601 308.494L603.8 312.304L603.491 312.671L601.397 314.04C601.32 314.132 601.32 314.132 601.151 314.146L597.374 314.725L597.206 314.739L577.183 313.223L565.381 314.403L553.892 317.257L545.103 319.88L544.935 319.894L540.454 320.193L531.786 323.23L531.617 323.245L523.361 324.122C523.361 324.122 523.283 324.213 523.192 324.136L516.542 322.92L512.78 323.667L510.614 324.193C510.537 324.284 510.368 324.299 510.277 324.222L505.604 323.261L498.895 324.346L493.231 327.721L492.725 327.765L487.314 327.123C487.145 327.137 487.145 327.137 487.054 327.06L483.076 325.275L474.573 326.258L467.343 327.217C467.252 327.14 467.175 327.231 467.083 327.154L462.15 326.131L458.914 326.068L454.326 329.096C454.249 329.188 454.08 329.203 453.911 329.217L452.455 329.087L451.39 335.554C451.482 335.631 451.405 335.723 451.405 335.723L450.299 338.708L450.797 345.552L452.214 347.216L455.078 347.906L459.716 349.465L463.242 349.928C463.41 349.914 463.502 349.991 463.685 350.145L467.175 354.182L474.092 359.542L474.275 359.696L481.373 371.161L484.968 375.444L488.285 377.456L506.931 383.766L507.298 384.075L509.124 386.554L514.771 396.954C514.862 397.031 514.877 397.199 514.891 397.368L513.364 412.377L513.115 418.435L517.75 425.945L520.788 425.685C521.034 425.579 521.218 425.733 521.401 425.888L523.459 428.092C523.55 428.169 523.656 428.415 523.671 428.584L523.646 430.286L525.646 431.816L525.829 431.97L527.078 433.648L531.522 436.924C531.614 437.001 531.797 437.155 531.812 437.324L532.514 440.58L678.221 387.552L678.607 387.094L680.855 385.541L685.734 379.937L686.537 376.382L687.411 373.672L687.566 373.489L690.659 368.888L692.34 364.663L692.417 364.571L694.29 361.605C694.276 361.437 694.444 361.422 694.522 361.331L698.598 359.281L699.104 359.238L706.535 360.642L711.025 361.448C711.194 361.434 711.377 361.588 711.483 361.834L713.198 365.003C713.304 365.249 713.333 365.587 713.101 365.861L711.725 367.68L710.562 369.99L713.426 370.68L713.793 370.988L715.725 373.714L718.546 373.897C718.623 373.806 718.715 373.883 718.715 373.883L724.029 375.383L728.362 371.356L732.781 368.343L736.207 364.649L736.561 361.813L736.528 359.435L736.138 357.853C736.539 357.564 736.939 357.274 737.248 356.908L738.072 357.602C739.08 358.451 745.223 359.711 746.525 360.024C747.827 360.338 752.024 358.703 753.529 358.405C755.033 358.106 762.181 358.174 763.685 357.875C765.099 357.499 773.48 359.077 775.514 360.008C777.457 360.862 782.96 361.581 782.96 361.581L782.187 373.465C782.187 373.465 779.996 383.685 779.725 385.494C779.531 387.211 777.585 392.308 776.316 394.372C774.955 396.359 773.028 400.69 772.858 403.68C772.687 406.671 774.963 416.423 774.875 418.386C774.787 420.349 774.527 428.278 774.328 430.931C774.038 433.506 775.228 434.51 776.733 434.211C778.238 433.912 782.876 435.47 787.878 435.297C792.802 435.216 794.963 443.618 795.293 447.5C795.624 451.383 800.681 454.861 800.681 454.861C800.681 454.861 805.316 462.371 806.304 463.987C807.292 465.602 807.599 468.212 807.511 470.175C807.501 472.046 810.346 481.495 810.493 485.223C810.641 488.951 812.036 494.358 810.535 496.697C809.034 499.036 807.264 500.208 808.824 503.56C810.462 506.82 814.437 514.557 815.241 516.018C816.046 517.48 817.646 519.298 819.71 520.567C821.773 521.836 825.447 523.052 825.237 527.576C825.028 532.1 825.861 541.89 827.032 543.661C828.203 545.431 830.912 549.28 831.585 552.198C832.259 555.116 836.205 562.515 837.496 564.7C838.787 566.885 840.714 570.546 841.977 572.393L841.986 572.406C843.247 574.252 844.995 576.81 847.907 576.136C850.825 575.461 854.77 574.869 857.793 577.415C860.059 578.072 863.602 580.744 864.308 586.04C865.014 591.336 862.351 593.009 859.708 593.915C857.065 594.822 852.177 599.321 851.489 604.226C850.802 609.131 851.58 615.271 853.782 619.163C855.984 623.056 861.436 627.18 864.315 628.039C867.193 628.898 871.307 628.29 873.575 625.971C875.843 623.651 883.455 620.194 888.453 625.972C893.451 631.751 895.057 632.634 897.66 633.261C900.264 633.888 903.813 635.625 906.377 637.786C908.942 639.947 917.885 645.133 919.259 646.29C920.633 647.448 924.34 651.042 927.005 654.384C929.67 657.727 935.045 661.943 935.921 664.248C936.798 666.554 941.106 672.221 943.121 673.919C945.136 675.617 950.001 677.836 950.819 682.442C951.636 687.048 955.862 693.743 960.226 695.07C964.589 696.397 977.027 696.692 979.428 697.932C981.829 699.172 988.579 701.57 989.833 702.313C991.086 703.056 994.34 705.328 994.34 705.328L981.691 731.491L976.822 746.191C976.822 746.191 977.495 749.109 977.639 750.797C977.783 752.485 976.14 758.152 974.75 759.802C973.36 761.451 976.263 763.583 977.757 765.156C979.251 766.728 980.521 764.664 980.691 761.674C980.861 758.683 983.167 757.806 986.046 758.665C988.924 759.523 988 765.639 986.653 767.795C985.307 769.951 986.864 771.263 989.13 771.919C991.396 772.575 990.199 775.483 990.752 777.986L990.81 778.246C991.326 780.568 991.57 781.662 989.335 784.314C987.019 787.063 987.376 786.267 987.163 788.751C986.949 791.235 987.231 795.547 988.797 797.963C990.364 800.38 989.177 801.416 986.481 800.712C983.786 800.008 982.13 802.53 981.584 804.107C981.039 805.684 982.985 808.578 984.447 807.773C985.909 806.967 987.597 806.823 989.245 808.212C990.894 809.601 990.894 809.601 990.348 811.178C989.802 812.755 987.635 816.257 986.858 818.109C986.08 819.961 988.717 822.966 991.938 822.86C995.16 822.754 996.406 827.409 996.406 827.409C996.406 827.409 995.04 830.331 996.148 832.362C997.256 834.392 997.208 834.822 996.396 837.272C995.585 839.722 994.195 841.371 992.006 840.623C989.817 839.875 985.956 844.457 984.952 845.648C983.949 846.839 985.152 850.987 986.212 853.447C987.271 855.907 984.723 858.931 982.109 860.175C979.494 861.419 979.435 863.719 980.852 865.384Z"/>
<path d="M55.5287 365.193L53.6038 366.548L52.1953 357.996L54.3753 357.64L54.3897 357.808L59.2078 357.481L75.1576 355.095L79.0976 355.438L87.9866 353.997L99.8187 350.178L107.338 349.62L128.202 346.048L138.158 343.155L158.333 339.473L174.498 331.627L175.425 338.52L171.875 339.759L169.11 343.226L167.286 345.763L164.411 346.944L158.22 343.138L151.312 346.875L146.148 346.127L139.977 349.546L122.735 352.723L118.337 351.994L113.605 353.334L107.773 356.724L103.267 358.725L87.2006 362.736L82.7255 362.099L68.1116 364.2L64.5487 362.295L58.4234 363.244L56.0207 364.98L55.5287 365.193Z"/>
</mask>
<path d="M980.852 865.384C982.269 867.048 980.279 871.639 979.468 874.089C978.656 876.539 978.983 878.381 977.069 877.865C975.155 877.349 974.454 879.109 972.607 880.373C970.759 881.636 970.599 882.755 969.816 885.543C969.034 888.33 966.054 886.29 963.032 883.743C960.009 881.196 959.733 883.94 959.64 886.839C959.547 889.738 958.067 888.334 956.022 889.274C953.976 890.215 952.371 889.332 950.997 888.174C949.623 887.016 946.662 887.185 944.873 886.148C943.123 885.133 942.055 885.443 940.455 885.909L940.35 885.94C938.69 886.422 937.229 887.227 935.855 886.07C934.481 884.912 930.599 885.244 929.842 883.354C929.086 881.463 927.31 883.57 925.766 885.403C924.222 887.235 919.776 886.936 917.712 885.667C915.649 884.399 911.226 885.372 909.682 887.205C908.137 889.038 907.448 888.926 904.641 888.912C901.834 888.897 902.854 892.891 900.66 893.078C898.466 893.266 897.959 893.31 897.837 895.871C897.715 898.432 895.868 899.695 894.363 899.994C892.858 900.293 892.592 901.166 891.588 902.357C890.585 903.548 890.811 904.209 892.416 905.092C894.022 905.975 893.067 906.736 892.246 908.082C891.425 909.428 891.039 909.886 888.507 910.103C885.975 910.319 887.107 913.623 887.107 913.623L887.136 921.953L882.239 925.347C882.239 925.347 880.656 928.714 879.266 930.363C877.876 932.012 875.427 931.202 872.596 929.914C869.766 928.626 867.715 930.502 865.785 932.792C863.855 935.083 861.068 934.301 859.491 933.756C857.914 933.211 855.305 933.52 854.378 934.619C853.452 935.719 850.645 935.704 848.562 935.202C846.479 934.7 846.222 936.678 845.725 937.825C845.227 938.973 845.598 941.322 846.585 942.938C847.573 944.554 846.072 946.893 845.787 948.533C845.501 950.172 844.53 953.741 844.53 953.741C844.53 953.741 831.484 955.283 828.219 954.883C824.954 954.482 823.712 959.86 823.884 961.885C824.057 963.911 822.032 972.076 821.057 973.605C820.082 975.134 811.285 984.644 810.127 986.018C808.969 987.393 803.321 995.953 803.321 995.953L803.717 996.599C802.458 996.792 800.851 998.885 800.416 999.773C799.919 1000.92 798.861 1003.48 798.861 1003.48C798.861 1003.48 797.847 1006.54 796.313 1006.5C794.78 1006.46 793.294 1005.99 793.768 1003.57C794.242 1001.15 791.551 1002.49 791.236 1003.79C790.922 1005.09 790.84 1006.12 789.306 1006.08C787.85 1005.95 788.042 1007.21 788.412 1009.56C788.859 1011.81 790.316 1011.94 791.961 1011.29C793.605 1010.64 794.047 1013.84 794.466 1015.76C794.793 1017.6 794.367 1019.59 794.367 1019.59C794.367 1019.59 795.152 1021.82 794.838 1023.12C794.524 1024.42 796.273 1026.99 797.078 1028.45C797.791 1029.84 795.832 1031.79 795.363 1033.28C794.895 1034.76 795.53 1036.24 796.678 1036.74C797.121 1036.95 797.628 1036.91 798.197 1036.61L794.852 1042.25L796.905 1053.38L795.372 1053.34L790.174 1050.22C790.174 1050.22 778.981 1041.57 776.691 1039.64C774.401 1037.71 768.824 1034.1 765.916 1032.91C763.009 1031.71 754.177 1025.84 750.513 1022.75C746.85 1019.66 735.679 1012.29 731.904 1009.89C728.13 1007.49 715.9 997.656 714.801 996.73C713.702 995.803 695.021 982.099 695.021 982.099L684.357 974.68C684.357 974.68 677.695 970.319 675.68 968.622C673.665 966.924 670.531 965.066 668.11 964.594C665.69 964.121 652.939 954.16 652.939 954.16L645.026 943.104L607.317 917.596L587.88 902.001L575.516 891.582L534.66 861.072L508.53 843.754L479.179 818.551L473.006 816.954L471.07 812.188L464.384 806.554C462.552 805.011 454.294 800.872 450.316 799.087C446.338 797.302 443.8 790.462 442.211 786.773C440.621 783.083 434.874 779.494 434.007 778.293C433.14 777.092 427.684 770.927 426.768 770.156C425.852 769.384 423.065 768.602 420.935 765.554C418.805 762.505 417.513 760.32 415.538 757.089C413.562 753.857 404.989 751.02 404.989 751.02C404.989 751.02 401.099 747.272 400.569 746.042C400.04 744.812 396.464 739.762 394.492 738.571C392.429 737.302 387.172 728.485 387.172 728.485C387.172 728.485 384.077 725.094 382.246 723.551C380.414 722.007 375.078 716.257 373.633 714.256C372.187 712.254 354.212 695.854 354.212 695.854L349.659 687.316C349.659 687.316 333.487 672.122 332.113 670.964C330.74 669.807 303.534 644.845 303.534 644.845L293.139 630.601L282.606 621.726L267.919 606.999L260.373 604.244L257.967 595.948L195.893 525.935L177.916 504.519L129.371 450.607L82.1514 398.281L84.2595 397.081L88.9913 395.74L98.392 393.32L108.292 394.768L117.357 397.393L124.869 400.746L130.255 403.09L138.607 404.331L145.225 403.169L153.623 398.964L162.582 393.351L166.288 388.953L168.015 387.275L175.232 383.171L180.384 380.775L183.789 380.823L184.261 381.378L185.678 383.042L187.205 386.992L190.149 392.607L190.056 395.505L187.071 402.392L188.555 405.836L190.97 407.245L200.273 408.659L210.009 409.186L220.509 407.692L228.944 407.905L234.812 408.933L249.278 414.071L260.074 417.057L262.692 417.853L269.868 418.259L278.757 416.818L290.309 413.704L295.257 414.896L295.497 415.725L293.799 417.741L293.156 420.177L294.341 422.116L305.132 426.038L321.898 423.242L321.734 422.321L316.142 418.549L312.965 416.185L312.44 414.02L313.295 412.076L316.227 411.57L315.886 409.559L314.18 407.494L310.781 406.51L303.789 403.283L299.831 400.731L297.967 396.81L296.232 394.407L292.77 393.684L292.68 390.631L288.253 389.564L285.684 388.339L285.021 383.55L280.696 380.689L277.731 378.817L276.546 376.878L274.001 373.951L273.346 373.242L270.063 370.632L263.147 370.289L257.702 370.245L253.773 368.031L253.59 367.876L252.592 368.132L251.593 368.387L242.024 370.822L236.27 371.144L233.208 370.131L231.444 367.391L231.466 363.649L232.622 357.258L235.089 352.286L243.234 344.107L247.116 335.783L245.991 328.568L243.967 325.765L243.784 325.611L235.825 320.001L235.55 319.769L223.125 322.618L216.133 322.367L211.193 325.255L204.22 332.229L197.127 338.787L196.572 339.26L195.274 340.986L195.404 342.506L197.418 344.203L198.103 345.25L197.634 346.736L195.806 347.232L193.892 346.716L189.661 348.948L187.4 347.357L182.411 342.683L180.089 338.375L180.169 332.332L180.18 330.461L182.376 327.297L186.298 325.431L193.465 324.732L204.695 318.84L213.918 315.33L222.13 308.93L232.284 303.385L242.875 293.976L249.428 288.059L255.324 281.433L262.544 263.386L267.139 256.446L268.595 248.585L270.241 244.958L279.327 235.848L284.032 231.195L295.37 222.572L299.615 220.508L307.188 218.585L312.422 215.161L318.828 213.507L320.591 216.247L320.976 218.765L321.894 224.552L323.18 227.673L329.648 233.751L330.198 234.214L342.198 241.348L348.897 250.127L355.13 254.44L372.855 260.914L374.69 264.498L383.088 271.261L386.352 271.661L388.069 271.854L390.591 273.509L390.332 278.462L391.25 284.25L393.456 290.182L398.111 296.926L410.38 305.227L430.906 312.652L434.234 312.792L437.976 312.812L455.139 315.679L469.456 317.089L472.143 316.689L473.985 316.361L476.343 317.094L489.384 316.488L493.782 317.217L502.94 316.943L503.953 316.856L536.841 313.701L572.592 303.243L589.603 300.342L620.811 290.443L640.365 285.454L651.854 282.6L667.082 277.725L671.631 276.23L672.152 276.356L678.464 285.593L680.242 288.501C679.596 288.897 679.041 289.369 678.578 289.919L678.077 289.027L676.329 291.472C676.175 291.655 675.929 291.761 675.76 291.776L672.23 292.248C672.138 292.171 672.061 292.262 671.969 292.185L665.382 290.709L661.096 289.29L659.837 289.483L658.79 290.168L656.966 292.704C656.889 292.796 656.72 292.81 656.643 292.902L654.428 293.857C654.351 293.948 654.182 293.963 654.014 293.977L650.32 293.528L643.057 292.11L641.982 292.457L637.611 295.041C637.365 295.148 637.196 295.162 636.936 295.099L633.43 293.869L628.244 296.864L623.443 302.376L623.289 302.559L620.239 304.69L620.162 304.782L615.671 306.952C615.594 307.044 615.594 307.044 615.425 307.058L606.831 307.964L605.601 308.494L603.8 312.304L603.491 312.671L601.397 314.04C601.32 314.132 601.32 314.132 601.151 314.146L597.374 314.725L597.206 314.739L577.183 313.223L565.381 314.403L553.892 317.257L545.103 319.88L544.935 319.894L540.454 320.193L531.786 323.23L531.617 323.245L523.361 324.122C523.361 324.122 523.283 324.213 523.192 324.136L516.542 322.92L512.78 323.667L510.614 324.193C510.537 324.284 510.368 324.299 510.277 324.222L505.604 323.261L498.895 324.346L493.231 327.721L492.725 327.765L487.314 327.123C487.145 327.137 487.145 327.137 487.054 327.06L483.076 325.275L474.573 326.258L467.343 327.217C467.252 327.14 467.175 327.231 467.083 327.154L462.15 326.131L458.914 326.068L454.326 329.096C454.249 329.188 454.08 329.203 453.911 329.217L452.455 329.087L451.39 335.554C451.482 335.631 451.405 335.723 451.405 335.723L450.299 338.708L450.797 345.552L452.214 347.216L455.078 347.906L459.716 349.465L463.242 349.928C463.41 349.914 463.502 349.991 463.685 350.145L467.175 354.182L474.092 359.542L474.275 359.696L481.373 371.161L484.968 375.444L488.285 377.456L506.931 383.766L507.298 384.075L509.124 386.554L514.771 396.954C514.862 397.031 514.877 397.199 514.891 397.368L513.364 412.377L513.115 418.435L517.75 425.945L520.788 425.685C521.034 425.579 521.218 425.733 521.401 425.888L523.459 428.092C523.55 428.169 523.656 428.415 523.671 428.584L523.646 430.286L525.646 431.816L525.829 431.97L527.078 433.648L531.522 436.924C531.614 437.001 531.797 437.155 531.812 437.324L532.514 440.58L678.221 387.552L678.607 387.094L680.855 385.541L685.734 379.937L686.537 376.382L687.411 373.672L687.566 373.489L690.659 368.888L692.34 364.663L692.417 364.571L694.29 361.605C694.276 361.437 694.444 361.422 694.522 361.331L698.598 359.281L699.104 359.238L706.535 360.642L711.025 361.448C711.194 361.434 711.377 361.588 711.483 361.834L713.198 365.003C713.304 365.249 713.333 365.587 713.101 365.861L711.725 367.68L710.562 369.99L713.426 370.68L713.793 370.988L715.725 373.714L718.546 373.897C718.623 373.806 718.715 373.883 718.715 373.883L724.029 375.383L728.362 371.356L732.781 368.343L736.207 364.649L736.561 361.813L736.528 359.435L736.138 357.853C736.539 357.564 736.939 357.274 737.248 356.908L738.072 357.602C739.08 358.451 745.223 359.711 746.525 360.024C747.827 360.338 752.024 358.703 753.529 358.405C755.033 358.106 762.181 358.174 763.685 357.875C765.099 357.499 773.48 359.077 775.514 360.008C777.457 360.862 782.96 361.581 782.96 361.581L782.187 373.465C782.187 373.465 779.996 383.685 779.725 385.494C779.531 387.211 777.585 392.308 776.316 394.372C774.955 396.359 773.028 400.69 772.858 403.68C772.687 406.671 774.963 416.423 774.875 418.386C774.787 420.349 774.527 428.278 774.328 430.931C774.038 433.506 775.228 434.51 776.733 434.211C778.238 433.912 782.876 435.47 787.878 435.297C792.802 435.216 794.963 443.618 795.293 447.5C795.624 451.383 800.681 454.861 800.681 454.861C800.681 454.861 805.316 462.371 806.304 463.987C807.292 465.602 807.599 468.212 807.511 470.175C807.501 472.046 810.346 481.495 810.493 485.223C810.641 488.951 812.036 494.358 810.535 496.697C809.034 499.036 807.264 500.208 808.824 503.56C810.462 506.82 814.437 514.557 815.241 516.018C816.046 517.48 817.646 519.298 819.71 520.567C821.773 521.836 825.447 523.052 825.237 527.576C825.028 532.1 825.861 541.89 827.032 543.661C828.203 545.431 830.912 549.28 831.585 552.198C832.259 555.116 836.205 562.515 837.496 564.7C838.787 566.885 840.714 570.546 841.977 572.393L841.986 572.406C843.247 574.252 844.995 576.81 847.907 576.136C850.825 575.461 854.77 574.869 857.793 577.415C860.059 578.072 863.602 580.744 864.308 586.04C865.014 591.336 862.351 593.009 859.708 593.915C857.065 594.822 852.177 599.321 851.489 604.226C850.802 609.131 851.58 615.271 853.782 619.163C855.984 623.056 861.436 627.18 864.315 628.039C867.193 628.898 871.307 628.29 873.575 625.971C875.843 623.651 883.455 620.194 888.453 625.972C893.451 631.751 895.057 632.634 897.66 633.261C900.264 633.888 903.813 635.625 906.377 637.786C908.942 639.947 917.885 645.133 919.259 646.29C920.633 647.448 924.34 651.042 927.005 654.384C929.67 657.727 935.045 661.943 935.921 664.248C936.798 666.554 941.106 672.221 943.121 673.919C945.136 675.617 950.001 677.836 950.819 682.442C951.636 687.048 955.862 693.743 960.226 695.07C964.589 696.397 977.027 696.692 979.428 697.932C981.829 699.172 988.579 701.57 989.833 702.313C991.086 703.056 994.34 705.328 994.34 705.328L981.691 731.491L976.822 746.191C976.822 746.191 977.495 749.109 977.639 750.797C977.783 752.485 976.14 758.152 974.75 759.802C973.36 761.451 976.263 763.583 977.757 765.156C979.251 766.728 980.521 764.664 980.691 761.674C980.861 758.683 983.167 757.806 986.046 758.665C988.924 759.523 988 765.639 986.653 767.795C985.307 769.951 986.864 771.263 989.13 771.919C991.396 772.575 990.199 775.483 990.752 777.986L990.81 778.246C991.326 780.568 991.57 781.662 989.335 784.314C987.019 787.063 987.376 786.267 987.163 788.751C986.949 791.235 987.231 795.547 988.797 797.963C990.364 800.38 989.177 801.416 986.481 800.712C983.786 800.008 982.13 802.53 981.584 804.107C981.039 805.684 982.985 808.578 984.447 807.773C985.909 806.967 987.597 806.823 989.245 808.212C990.894 809.601 990.894 809.601 990.348 811.178C989.802 812.755 987.635 816.257 986.858 818.109C986.08 819.961 988.717 822.966 991.938 822.86C995.16 822.754 996.406 827.409 996.406 827.409C996.406 827.409 995.04 830.331 996.148 832.362C997.256 834.392 997.208 834.822 996.396 837.272C995.585 839.722 994.195 841.371 992.006 840.623C989.817 839.875 985.956 844.457 984.952 845.648C983.949 846.839 985.152 850.987 986.212 853.447C987.271 855.907 984.723 858.931 982.109 860.175C979.494 861.419 979.435 863.719 980.852 865.384Z" stroke="url(#paint2_linear)" stroke-width="4" mask="url(#path-2-inside-1)"/>
<path d="M55.5287 365.193L53.6038 366.548L52.1953 357.996L54.3753 357.64L54.3897 357.808L59.2078 357.481L75.1576 355.095L79.0976 355.438L87.9866 353.997L99.8187 350.178L107.338 349.62L128.202 346.048L138.158 343.155L158.333 339.473L174.498 331.627L175.425 338.52L171.875 339.759L169.11 343.226L167.286 345.763L164.411 346.944L158.22 343.138L151.312 346.875L146.148 346.127L139.977 349.546L122.735 352.723L118.337 351.994L113.605 353.334L107.773 356.724L103.267 358.725L87.2006 362.736L82.7255 362.099L68.1116 364.2L64.5487 362.295L58.4234 363.244L56.0207 364.98L55.5287 365.193Z" stroke="url(#paint3_linear)" stroke-width="4" mask="url(#path-2-inside-1)"/>
<defs>
<linearGradient id="paint0_linear" x1="201.038" y1="278.791" x2="908.871" y2="888.297" gradientUnits="userSpaceOnUse">
<stop stop-color="#003F46"/>
<stop offset="0.322965" stop-color="#003F46" stop-opacity="0.802083"/>
<stop offset="1" stop-color="#003F46" stop-opacity="0"/>
</linearGradient>
<linearGradient id="paint1_linear" x1="201.038" y1="278.791" x2="908.871" y2="888.297" gradientUnits="userSpaceOnUse">
<stop stop-color="#003F46"/>
<stop offset="0.322965" stop-color="#003F46" stop-opacity="0.802083"/>
<stop offset="1" stop-color="#003F46" stop-opacity="0"/>
</linearGradient>
<linearGradient id="paint2_linear" x1="210.743" y1="315.911" x2="895.946" y2="802.908" gradientUnits="userSpaceOnUse">
<stop stop-color="#F1D299"/>
<stop offset="1" stop-color="#F1D299" stop-opacity="0"/>
</linearGradient>
<linearGradient id="paint3_linear" x1="210.743" y1="315.911" x2="895.946" y2="802.908" gradientUnits="userSpaceOnUse">
<stop stop-color="#F1D299"/>
<stop offset="1" stop-color="#F1D299" stop-opacity="0"/>
</linearGradient>
</defs>
</svg>
